<svg width="280" height="212" viewBox="0 0 280 212" fill="none" xmlns="http://www.w3.org/2000/svg">
<path d="M196.127 42.8423H46.0096C37.5614 42.8423 30.7129 49.6908 30.7129 58.139C30.7129 66.5871 37.5614 73.4356 46.0096 73.4356H196.127C204.575 73.4356 211.424 66.5871 211.424 58.139C211.424 49.6908 204.575 42.8423 196.127 42.8423Z" fill="#E1E7EF"/>
<path d="M232.18 145.666H35.4311C21.6146 145.666 10.4141 156.866 10.4141 170.683C10.4141 184.499 21.6146 195.7 35.4311 195.7H232.18C245.997 195.7 257.197 184.499 257.197 170.683C257.197 156.866 245.997 145.666 232.18 145.666Z" fill="#E1E7EF"/>
<path d="M227.522 120.811H35.5723C42.4358 120.811 48 126.375 48 133.238C48 140.102 42.4358 145.667 35.5723 145.667H227.522C220.658 145.667 215.092 140.103 215.092 133.24C215.092 126.376 220.657 120.811 227.522 120.811Z" fill="#E1E7EF"/>
<path d="M250.942 82.8521H36.2538C25.7723 82.8521 17.2754 91.349 17.2754 101.83C17.2754 112.312 25.7723 120.809 36.2538 120.809H250.942C261.424 120.809 269.921 112.312 269.921 101.83C269.921 91.349 261.424 82.8521 250.942 82.8521Z" fill="#E1E7EF"/>
<path d="M203.206 62.5877H77.1324C76.5266 62.5877 75.9933 62.1904 75.8196 61.6118C75.6458 61.0316 75.8724 60.4077 76.3786 60.0738L139.416 18.5424C139.874 18.2417 140.466 18.2417 140.924 18.5424L203.961 60.0738C204.466 60.4062 204.694 61.0316 204.52 61.6118C204.346 62.1919 203.813 62.5877 203.207 62.5877H203.206ZM81.701 59.8487H198.636L140.168 21.3283L81.701 59.8487Z" fill="#99B0CB"/>
<path d="M223.933 62.5098V174.749C223.933 179.654 219.957 183.631 215.051 183.631H65.2842C60.3802 183.631 56.4023 179.654 56.4023 174.749V62.5098C56.4023 57.6043 60.3802 53.6279 65.2842 53.6279H215.05C219.955 53.6279 223.931 57.6043 223.931 62.5098H223.933Z" fill="white"/>
<g opacity="0.11">
<path d="M223.933 68.8096H56.4023V73.4356H223.933V68.8096Z" fill="#B4C4D6"/>
</g>
<path d="M223.93 62.5084V68.8098H56.4023V62.5084C56.4023 57.6029 60.3802 53.6265 65.2842 53.6265H215.05C219.955 53.6265 223.932 57.6029 223.932 62.5084H223.93Z" fill="url(#paint0_linear_1165_23720)"/>
<path d="M69.5076 63.7808C70.9227 63.7808 72.0699 62.6336 72.0699 61.2185C72.0699 59.8034 70.9227 58.6562 69.5076 58.6562C68.0925 58.6562 66.9453 59.8034 66.9453 61.2185C66.9453 62.6336 68.0925 63.7808 69.5076 63.7808Z" fill="white"/>
<path d="M79.0174 63.7808C80.4325 63.7808 81.5797 62.6336 81.5797 61.2185C81.5797 59.8034 80.4325 58.6562 79.0174 58.6562C77.6023 58.6562 76.4551 59.8034 76.4551 61.2185C76.4551 62.6336 77.6023 63.7808 79.0174 63.7808Z" fill="white"/>
<path d="M88.6014 63.7808C90.0165 63.7808 91.1636 62.6336 91.1636 61.2185C91.1636 59.8034 90.0165 58.6562 88.6014 58.6562C87.1862 58.6562 86.0391 59.8034 86.0391 61.2185C86.0391 62.6336 87.1862 63.7808 88.6014 63.7808Z" fill="white"/>
<path d="M185.175 111.403H95.1565C82.0083 111.403 71.3496 122.062 71.3496 135.21C71.3496 148.358 82.0083 159.017 95.1565 159.017H185.175C198.323 159.017 208.982 148.358 208.982 135.21C208.982 122.062 198.323 111.403 185.175 111.403Z" fill="#E1E7EF"/>
<path d="M87.9492 133.6V127.469L106.172 101.387H115.257V126.8H120.161V133.598H115.257V141.512H107.455V133.598H87.9492V133.6ZM107.957 109.747L96.532 126.801H107.957V109.747Z" fill="url(#paint1_linear_1165_23720)"/>
<path d="M128.605 105.569C130.927 101.928 134.781 100.107 140.168 100.107C145.556 100.107 149.41 101.928 151.732 105.569C154.054 109.21 155.214 114.244 155.214 120.672C155.214 127.101 154.053 132.209 151.732 135.886C149.41 139.565 145.554 141.403 140.168 141.403C134.783 141.403 130.926 139.565 128.605 135.886C126.283 132.207 125.121 127.137 125.121 120.672C125.121 114.208 126.281 109.211 128.605 105.569ZM146.996 113.733C146.642 111.857 145.937 110.325 144.878 109.136C143.819 107.947 142.249 107.353 140.168 107.353C138.088 107.353 136.518 107.948 135.459 109.136C134.4 110.325 133.695 111.858 133.341 113.733C132.988 115.61 132.812 117.923 132.812 120.671C132.812 123.419 132.98 125.863 133.314 127.776C133.648 129.69 134.353 131.231 135.432 132.402C136.509 133.573 138.088 134.157 140.168 134.157C142.249 134.157 143.828 133.573 144.905 132.402C145.982 131.231 146.688 129.69 147.023 127.776C147.357 125.863 147.524 123.494 147.524 120.671C147.524 117.847 147.348 115.61 146.996 113.733Z" fill="url(#paint2_linear_1165_23720)"/>
<path d="M160.787 133.6V127.469L179.01 101.387H188.094V126.8H192.998V133.598H188.094V141.512H180.293V133.598H160.787V133.6ZM180.794 109.747L169.37 126.801H180.794V109.747Z" fill="url(#paint3_linear_1165_23720)"/>
<path d="M141.58 23.1015C143.466 22.3205 144.361 20.1588 143.58 18.2733C142.799 16.3877 140.638 15.4923 138.752 16.2733C136.866 17.0544 135.971 19.216 136.752 21.1016C137.533 22.9871 139.695 23.8825 141.58 23.1015Z" fill="#2A5C96"/>
<defs>
<linearGradient id="paint0_linear_1165_23720" x1="56.4023" y1="61.2181" x2="223.932" y2="61.2181" gradientUnits="userSpaceOnUse">
<stop stop-color="#99B0CB"/>
<stop offset="1" stop-color="#CBD8E7"/>
</linearGradient>
<linearGradient id="paint1_linear_1165_23720" x1="105.749" y1="139.078" x2="130.692" y2="133.247" gradientUnits="userSpaceOnUse">
<stop stop-color="#99B0CB"/>
<stop offset="1" stop-color="#CBD8E7"/>
</linearGradient>
<linearGradient id="paint2_linear_1165_23720" x1="141.751" y1="138.898" x2="165.268" y2="133.908" gradientUnits="userSpaceOnUse">
<stop stop-color="#99B0CB"/>
<stop offset="1" stop-color="#CBD8E7"/>
</linearGradient>
<linearGradient id="paint3_linear_1165_23720" x1="178.587" y1="139.078" x2="203.53" y2="133.247" gradientUnits="userSpaceOnUse">
<stop stop-color="#99B0CB"/>
<stop offset="1" stop-color="#CBD8E7"/>
</linearGradient>
</defs>
</svg>
