<svg width="280" height="212" viewBox="0 0 280 212" fill="none" xmlns="http://www.w3.org/2000/svg">
<path d="M230 81C241.046 81 250 89.9543 250 101V108C250 119.046 241.046 128 230 128C227.791 128 226 129.791 226 132V134.5C226 138.09 228.91 141 232.5 141H244C255.046 141 264 149.954 264 161V168C264 179.046 255.046 188 244 188H50C38.9543 188 30 179.046 30 168V161C30 153.118 34.5592 146.302 41.1841 143.043C44.3395 141.491 47 138.623 47 135.106C47 131.182 43.8184 128 39.8937 128H36C24.9543 128 16 119.046 16 108V101C16 89.9543 24.9543 81 36 81H230Z" fill="#E1E7EF"/>
<rect x="65" y="30" width="169" height="34" rx="17" fill="#E1E7EF"/>
<path d="M222.221 59.6705V111.199C222.221 123.715 218.946 134.94 212.485 144.561C207.359 152.197 200.254 158.779 191.37 164.127C176.5 173.078 161.777 175.486 161.158 175.584L160.358 175.71L159.559 175.584C158.94 175.486 144.215 173.078 129.345 164.127C120.462 158.779 113.358 152.197 108.23 144.561C102.671 136.284 99.471 126.819 98.6868 116.366C98.5588 114.669 98.4941 112.947 98.4941 111.199V59.6705C98.4941 58.1763 98.911 55.9144 100.898 53.6236C102.048 52.2959 103.579 51.1099 105.574 49.9969C108.845 48.1738 113.381 46.5696 119.052 45.2323C130.142 42.614 144.811 41.1707 160.357 41.168C162.236 41.168 164.105 41.19 165.953 41.2326C179.399 41.5367 191.914 42.9304 201.664 45.2323C207.336 46.5696 211.87 48.1738 215.141 49.9969C217.137 51.1099 218.666 52.2973 219.819 53.6236C221.804 55.9117 222.221 58.175 222.221 59.6691V59.6705Z" fill="url(#paint0_linear_1165_23746)"/>
<path d="M217.224 59.6691V111.198C217.224 161.549 160.472 170.537 160.472 170.537C160.472 170.537 122.704 164.556 108.789 135.018C107.721 132.752 106.794 130.347 106.034 127.796C104.559 122.837 103.719 117.324 103.719 111.199V59.6704C103.719 52.2793 129.123 46.2847 160.472 46.2778C164.389 46.2778 168.212 46.3728 171.905 46.5516C177.15 46.8062 182.13 47.2299 186.738 47.7995C204.861 50.0381 217.224 54.5137 217.224 59.6704V59.6691Z" fill="url(#paint1_linear_1165_23746)"/>
<path opacity="0.2" d="M171.538 49.8572C171.538 89.0403 143.017 121.562 105.599 127.794C104.124 122.836 103.283 117.322 103.283 111.197V59.6685C103.283 52.2774 128.687 46.2828 160.036 46.2759C163.953 46.2759 167.777 46.3708 171.469 46.5497C171.515 47.6476 171.538 48.7483 171.538 49.8559V49.8572Z" fill="white"/>
<path d="M142.399 123.571V164.141C142.399 170.53 137.22 175.709 130.831 175.709H71.4747C65.0852 175.709 59.9023 170.53 59.9023 164.141V123.571C59.9023 122.892 59.9615 122.224 60.0771 121.577C61.0209 116.137 65.7649 112.002 71.4761 112.002H130.832C137.221 112.002 142.4 117.181 142.4 123.571H142.399Z" fill="#A8A8A8"/>
<path d="M142.399 123.571V164.141C142.399 170.53 137.22 175.709 130.831 175.709H71.4747C65.0852 175.709 59.9023 170.53 59.9023 164.141V123.571C59.9023 122.892 59.9615 122.224 60.0771 121.577C61.0209 116.137 65.7649 112.002 71.4761 112.002H130.832C137.221 112.002 142.4 117.181 142.4 123.571H142.399Z" fill="url(#paint2_linear_1165_23746)"/>
<path d="M131.439 98.2535C129.359 83.4961 116.645 72.1108 101.323 72.1108C86.0014 72.1108 73.2926 83.4961 71.2109 98.2535C71.0086 99.6514 70.9082 101.077 70.9082 102.53V130.047C70.9082 134.512 74.5377 138.145 79.0024 138.145H123.642C128.111 138.145 131.74 134.51 131.74 130.047V102.53C131.74 101.077 131.64 99.6514 131.438 98.2535H131.439ZM122.901 129.305H79.7454V102.531C79.7454 101.069 79.8926 99.639 80.1719 98.2549C82.1614 88.3914 90.8871 80.9494 101.323 80.9494C111.759 80.9494 120.485 88.3928 122.474 98.2549C122.753 99.639 122.901 101.069 122.901 102.531V129.305Z" fill="url(#paint3_linear_1165_23746)"/>
<path d="M142.398 123.571V156.052C141.454 161.492 136.714 165.627 131.004 165.627H71.6485C65.259 165.627 60.0762 160.448 60.0762 154.058V121.577C61.02 116.137 65.764 112.002 71.4752 112.002H130.831C137.221 112.002 142.399 117.181 142.399 123.571H142.398Z" fill="url(#paint4_linear_1165_23746)"/>
<g filter="url(#filter0_i_1165_23746)">
<path d="M108.73 127.918C108.73 129.379 108.318 130.742 107.603 131.9C107.359 132.296 107.077 132.669 106.766 133.012C106.684 133.104 106.598 133.193 106.511 133.28C105.139 134.652 103.243 135.501 101.149 135.501C98.4224 135.501 96.0311 134.06 94.6966 131.9C93.9811 130.743 93.5684 129.379 93.5684 127.918C93.5684 126.457 94.0004 125.029 94.7488 123.854C95.0474 123.383 95.3969 122.949 95.789 122.557C97.1607 121.185 99.058 120.336 101.151 120.336C103.243 120.336 105.139 121.183 106.512 122.557C106.905 122.949 107.254 123.383 107.554 123.854C107.778 124.206 107.974 124.576 108.137 124.966C108.52 125.874 108.733 126.871 108.733 127.918H108.73Z" fill="white"/>
<path d="M101.15 157.293C98.0968 157.293 95.6753 154.717 95.8638 151.67L97.1021 131.683C97.2342 129.545 99.0077 127.878 101.15 127.878C103.292 127.878 105.064 129.545 105.198 131.683L106.436 151.67C106.624 154.717 104.204 157.293 101.15 157.293Z" fill="white"/>
</g>
<path d="M158.938 98.2463C157.353 98.2463 155.833 97.6162 154.712 96.4948L142.435 84.218C140.1 81.8832 140.1 78.0982 142.435 75.7648C144.77 73.4299 148.555 73.4299 150.889 75.7648L158.94 83.8149L181.984 60.7707C184.319 58.4358 188.104 58.4358 190.438 60.7707C192.773 63.1055 192.773 66.8905 190.438 69.2239L163.168 96.4948C162.046 97.6162 160.526 98.2463 158.941 98.2463H158.938Z" fill="white"/>
<g filter="url(#filter1_i_1165_23746)">
<path d="M158.938 98.2463C157.353 98.2463 155.833 97.6162 154.712 96.4948L142.435 84.218C140.1 81.8832 140.1 78.0982 142.435 75.7648C144.77 73.4299 148.555 73.4299 150.889 75.7648L158.94 83.8149L181.984 60.7707C184.319 58.4358 188.104 58.4358 190.438 60.7707C192.773 63.1055 192.773 66.8905 190.438 69.2239L176.803 82.8594L163.168 96.4948C162.046 97.6162 160.526 98.2463 158.941 98.2463H158.938Z" fill="white"/>
</g>
<defs>
<filter id="filter0_i_1165_23746" x="93.5684" y="120.336" width="17.1641" height="36.957" filterUnits="userSpaceOnUse" color-interpolation-filters="sRGB">
<feFlood flood-opacity="0" result="BackgroundImageFix"/>
<feBlend mode="normal" in="SourceGraphic" in2="BackgroundImageFix" result="shape"/>
<feColorMatrix in="SourceAlpha" type="matrix" values="0 0 0 0 0 0 0 0 0 0 0 0 0 0 0 0 0 0 127 0" result="hardAlpha"/>
<feOffset dx="2"/>
<feGaussianBlur stdDeviation="2"/>
<feComposite in2="hardAlpha" operator="arithmetic" k2="-1" k3="1"/>
<feColorMatrix type="matrix" values="0 0 0 0 0.382165 0 0 0 0 0.512216 0 0 0 0 0.665912 0 0 0 0.4 0"/>
<feBlend mode="normal" in2="shape" result="effect1_innerShadow_1165_23746"/>
</filter>
<filter id="filter1_i_1165_23746" x="140.684" y="59.0195" width="53.5059" height="39.2266" filterUnits="userSpaceOnUse" color-interpolation-filters="sRGB">
<feFlood flood-opacity="0" result="BackgroundImageFix"/>
<feBlend mode="normal" in="SourceGraphic" in2="BackgroundImageFix" result="shape"/>
<feColorMatrix in="SourceAlpha" type="matrix" values="0 0 0 0 0 0 0 0 0 0 0 0 0 0 0 0 0 0 127 0" result="hardAlpha"/>
<feOffset dx="2"/>
<feGaussianBlur stdDeviation="2"/>
<feComposite in2="hardAlpha" operator="arithmetic" k2="-1" k3="1"/>
<feColorMatrix type="matrix" values="0 0 0 0 0.279216 0 0 0 0 0.375832 0 0 0 0 0.490015 0 0 0 0.5 0"/>
<feBlend mode="normal" in2="shape" result="effect1_innerShadow_1165_23746"/>
</filter>
<linearGradient id="paint0_linear_1165_23746" x1="269.5" y1="111.5" x2="177.5" y2="58.5" gradientUnits="userSpaceOnUse">
<stop stop-color="#B4C4D6"/>
<stop offset="1" stop-color="white"/>
</linearGradient>
<linearGradient id="paint1_linear_1165_23746" x1="212" y1="141" x2="110.5" y2="59.5" gradientUnits="userSpaceOnUse">
<stop stop-color="#99B0CB"/>
<stop offset="1" stop-color="#CBD8E7"/>
</linearGradient>
<linearGradient id="paint2_linear_1165_23746" x1="106" y1="176" x2="106" y2="168" gradientUnits="userSpaceOnUse">
<stop stop-color="#B2C4D9"/>
<stop offset="1" stop-color="#96ADC8"/>
</linearGradient>
<linearGradient id="paint3_linear_1165_23746" x1="97.5" y1="74" x2="121.5" y2="113" gradientUnits="userSpaceOnUse">
<stop stop-color="#ADC1D6"/>
<stop offset="1" stop-color="#678AB3"/>
</linearGradient>
<linearGradient id="paint4_linear_1165_23746" x1="152" y1="180" x2="90.5" y2="132" gradientUnits="userSpaceOnUse">
<stop stop-color="#A7BBD2"/>
<stop offset="1" stop-color="#E7EBF0"/>
</linearGradient>
</defs>
</svg>
