<svg width="145" height="38" viewBox="0 0 145 38" fill="none" xmlns="http://www.w3.org/2000/svg">
<path d="M25.1044 20.9889H23.0049C23.2956 21.9708 25.3951 22.5781 26.5838 21.0728L25.1561 17.7588H25.098V20.9889H25.1044Z" fill="#004E97"/>
<path d="M30.5884 17.7588H30.5238V20.9889H28.4307C28.7149 21.9708 30.8274 22.5781 32.016 21.0728L30.5884 17.7588Z" fill="#004E97"/>
<path d="M13.3406 21.68L13.2631 21.5573L13.2373 21.5056C12.8561 22.3325 12.5589 23.1788 12.3393 24.0186C12.0486 27.6492 12.0744 31.2475 12.1326 35.1818C12.1519 36.2477 11.9581 36.3123 11.6093 36.519C11.2604 36.7322 9.85213 37.2942 9.81983 37.4041C9.78107 37.5074 9.83275 37.7271 10.0007 37.7529H13.3277C13.6895 35.6533 14.1352 32.7398 14.1352 32.7398C14.6972 34.2127 15.8407 36.5772 16.8097 37.7335H18.5733C22.7272 37.7335 26.5839 36.8808 29.1421 34.9363C26.2545 33.0822 23.9869 30.4658 22.3267 27.7203C18.7025 27.197 15.3885 24.936 13.3406 21.68Z" fill="#004E97"/>
<path d="M13.2373 21.5058C13.5991 20.7112 14.0319 19.923 14.5229 19.1607C14.103 17.9785 13.8963 16.8674 13.78 15.9824L13.7025 16.0276C13.4182 16.202 12.9337 16.9514 12.7593 17.3519L12.5332 15.5237L11.2734 15.6787C11.2928 15.8467 11.3122 16.0147 11.3316 16.1891C11.6029 18.1336 12.2748 19.9295 13.2373 21.5058Z" fill="#F6AC19"/>
<path d="M14.5426 19.2122L14.5297 19.1605C14.0387 19.9228 13.6059 20.711 13.2441 21.5056L13.27 21.5572C13.2958 21.596 13.3217 21.6412 13.3475 21.68C15.3954 24.9294 18.7094 27.197 22.3336 27.7202C22.0364 27.2293 21.7586 26.7254 21.5002 26.2279L21.4615 26.1569C17.3528 24.5418 15.46 21.7252 14.5491 19.2122" fill="#EF7A00"/>
<path d="M18.9351 14.3671C18.4054 14.4705 17.824 14.5932 17.572 14.6643L17.3653 13.7599C17.6754 13.6824 18.1211 13.4498 18.1211 13.4498C18.1211 13.4498 18.3924 12.7327 18.4764 12.0802C18.6573 10.6978 18.2374 9.86441 18.2374 9.86441C16.9325 9.75459 15.7438 10.4135 15.1236 11.234C15.1753 12.526 15.9311 13.3012 15.9311 13.3012L15.5823 15.1811C15.0719 15.3685 14.161 15.769 13.7864 15.9757H13.7734C13.8897 16.8672 14.0964 17.9784 14.5164 19.1606C15.6727 17.3776 17.1779 15.7238 18.9286 14.3671" fill="#00998A"/>
<path d="M28.7358 20.6723L30.6028 16.5378V16.3763H27.8507C27.8507 16.3763 27.6311 12.6036 27.5665 11.1177L29.1944 10.0001V9.92906H29.1363C27.7538 9.87092 25.6995 10.4136 24.0328 11.2146C22.3596 11.9705 20.3893 13.1591 18.9357 14.3672C17.185 15.7238 15.6863 17.3776 14.5234 19.1606L14.5364 19.2123C15.4472 21.7253 17.3465 24.5419 21.4487 26.157C19.8014 22.9656 18.968 19.755 18.9357 17.4939C19.1424 17.0869 21.2226 15.7174 21.2226 15.7174C23.0379 13.2044 25.7447 11.1759 25.7447 11.1759C25.9902 11.0402 26.7913 11.0725 27.237 11.0984C27.1724 12.5777 26.9075 16.3763 26.9075 16.3763H24.1361V16.5636L23.0379 20.6723H23.2317L24.9889 16.7639C26.4747 17.1128 28.206 17.0546 29.5627 16.8091L28.529 20.6723H28.7164H28.7358Z" fill="#004E97"/>
<path d="M12.3462 24.0185C12.5594 23.1787 12.863 22.3389 13.2441 21.5055C12.2816 19.9292 11.6097 18.1269 11.3384 16.1888C11.3126 16.0209 11.2932 15.8529 11.2803 15.6785L8.87062 15.9821C8.58637 16.0144 8.32797 16.1694 8.20522 16.3245C8.10832 16.4537 7.9985 16.6863 8.02434 16.9705L8.70265 22.4681L12.1072 22.0482L12.3462 24.0056V24.0314V24.0185Z" fill="#C8007E"/>
<path d="M15.2139 0.206725L15.2397 0.303627H15.2591C15.3172 0.316547 15.3689 0.329468 15.4141 0.471591L16.0472 2.72618L16.648 2.55822L15.9309 0L15.2203 0.200265L15.2139 0.206725Z" fill="#004E97"/>
<path d="M13.5984 2.46111L13.2624 1.25307L14.1023 1.01404L14.4447 2.22209L13.6048 2.46111M12.4355 1.0528L12.4614 1.1497H12.5001C12.5583 1.1497 12.5906 1.20138 12.6229 1.31767C12.6229 1.31767 12.9071 2.33191 12.9911 2.61616C13.0686 2.89394 13.2624 2.99085 13.5273 2.91332C13.7793 2.84226 15.1553 2.45465 15.1553 2.45465L14.5868 0.439087L12.4355 1.04634V1.0528Z" fill="#004E97"/>
<path d="M13.6963 3.3719L13.7221 3.4688H13.7415C13.7997 3.48818 13.8513 3.49464 13.8901 3.64322C13.8901 3.64322 14.0193 4.10189 14.1291 4.47658C14.2066 4.75437 14.394 4.84481 14.6653 4.76729C14.8268 4.72207 17.1202 4.07605 17.1202 4.07605L17.0039 3.66906L14.7299 4.30862L14.4069 3.17163L13.6963 3.3719Z" fill="#004E97"/>
<path d="M6.07227 8.88904L6.14979 8.9601H6.16271C6.22085 8.93426 6.27253 8.91488 6.38235 9.01825C6.38235 9.01825 6.7635 9.37355 7.01545 9.60612C7.26093 9.83222 7.47412 9.74178 7.6227 9.57382C7.77129 9.41232 9.36048 7.70037 9.36048 7.70037L9.0504 7.40967L7.44182 9.14745L6.57616 8.34639L6.07227 8.88904Z" fill="#004E97"/>
<path d="M5.72363 5.39409L5.80115 5.46515H5.81408C5.87222 5.43931 5.9239 5.42639 6.03372 5.5233L7.75212 7.11895L8.17849 6.66028L7.14487 5.69772L7.46141 5.34887L7.13841 5.05171L6.82186 5.40055L6.22752 4.85144L5.72363 5.39409Z" fill="#004E97"/>
<path d="M5.99528 7.77814C5.8144 7.97195 5.47847 7.95902 5.24591 7.74584C5.00688 7.52619 4.96812 7.19027 5.149 6.99646C5.32989 6.80266 5.66582 6.81558 5.89838 7.03522C6.13095 7.24841 6.16971 7.58434 5.98882 7.77814M4.36733 6.71222L4.59343 6.91894L3.9668 7.59726L4.2898 7.88796L4.52883 7.62956C4.56113 7.85566 4.65157 8.03655 4.826 8.19805C5.02626 8.3854 5.27821 8.46938 5.56891 8.44354C5.85962 8.4177 6.11157 8.28849 6.31829 8.06239C6.53148 7.83628 6.63484 7.57788 6.6413 7.28717C6.6413 6.99646 6.5444 6.75744 6.34413 6.56363C6.16971 6.40859 5.98236 6.32461 5.75626 6.31169L5.99528 6.05974L5.67228 5.76257L5.0521 6.43443L4.826 6.2277L4.38025 6.70576L4.36733 6.71222Z" fill="#004E97"/>
<path d="M0.497432 14.5157L0.600794 14.5351L0.613714 14.5222C0.652475 14.477 0.684776 14.4317 0.83336 14.464L1.72486 14.6579L1.63442 15.0842L0.43929 14.8258L0.290707 15.5106L0.387609 15.53V15.5171C0.43929 15.4718 0.471591 15.4266 0.620175 15.4654L2.60344 15.8982C2.64866 15.9628 2.65512 16.0597 2.62928 16.1954L2.39026 17.2936L0.574953 16.8995L0.801059 15.8594L0.381149 15.769L0 17.5391L0.103362 17.5649L0.116283 17.552C0.155044 17.5068 0.187344 17.468 0.335928 17.4939C0.335928 17.4939 1.97035 17.8492 2.25459 17.9073C2.53884 17.9719 2.7068 17.8492 2.76494 17.5714C2.82309 17.2936 3.04273 16.2987 3.04273 16.2987C3.06211 16.2083 3.06211 16.1178 3.04273 16.0209V16.0016L4.4575 16.3052L4.58025 15.7367L2.06079 15.1876L2.15123 14.7612L4.67069 15.3103L4.79343 14.7418L0.646015 13.8439L0.497432 14.5286V14.5157Z" fill="#004E97"/>
<path d="M23.6751 0.0708008L23.5459 0.48425L25.8393 1.16903L25.5421 2.16389L26.1558 2.34477L26.5757 0.936461L23.6751 0.0708008Z" fill="#004E97"/>
<path d="M22.9452 1.62134L22.816 2.03479L24.1791 2.44178L24.0241 2.96505L22.8483 2.6162L22.7256 3.02965L25.1998 3.76611L24.8574 4.9031L25.4712 5.09044L25.9363 3.53354L24.6378 3.14593L24.7928 2.62266L26.3627 3.09425L26.4854 2.67434L22.9452 1.62134Z" fill="#004E97"/>
<path d="M31.3775 8.19808L31.7328 7.88799L32.7212 9.02498L32.3659 9.33507L31.3775 8.19808ZM33.393 8.44357L33.0248 8.76011L32.0364 7.62313L32.4046 7.30012L31.9459 6.77039L31.8749 6.83499V6.84791C31.8943 6.90605 31.9007 6.95127 31.7974 7.04817C31.7974 7.04817 31.2289 7.5456 30.9963 7.74587C30.7702 7.94613 30.8025 8.1464 30.9575 8.32728C31.1126 8.50817 32.4563 10.0586 32.4563 10.0586L33.7871 8.90224L33.393 8.45002V8.44357Z" fill="#004E97"/>
<path d="M35.0451 6.87988L34.974 6.94448V6.9574C34.9934 7.01555 34.9999 7.06077 34.8965 7.15767L34.5929 7.42254L34.2699 7.05431L33.9663 7.31917L34.2893 7.6874L33.6045 8.28174L33.9986 8.73395L35.5167 7.41608L35.0516 6.88634L35.0451 6.87988Z" fill="#004E97"/>
<path d="M33.1211 7.03509L32.4621 6.27279L32.8756 5.91103L33.541 6.67332L33.1211 7.03509ZM34.6327 6.51182L34.2387 6.05961L33.8317 6.41492L33.1727 5.65262L33.5797 5.30377L33.1146 4.76758L33.0435 4.83218V4.8451C33.0629 4.90324 33.0694 4.95492 32.966 5.04536C32.966 5.04536 32.3329 5.59448 32.0681 5.82058C31.8355 6.02085 31.8742 6.22757 32.0293 6.402C32.1585 6.55058 33.1986 7.75217 33.1986 7.75217L34.6327 6.51182Z" fill="#004E97"/>
<path d="M39.6265 17.2291L36.39 17.8945L36.2672 17.3001L36.7065 17.2097L36.5644 16.5249L36.9326 16.4474L37.0748 17.1322L39.2066 16.6929C39.3617 16.6606 39.381 16.6024 39.394 16.5443L39.4779 16.5185L39.6201 17.2226M37.6562 16.8156L37.2556 16.8996L37.0102 15.6916L36.5256 15.7885L36.4223 15.2781L36.9068 15.1812L36.7065 14.2057L37.1071 14.1217L37.6562 16.8156ZM36.3641 15.5882L35.4016 15.782L35.8667 18.0495L35.4726 18.1335L34.9687 15.6916C34.9106 15.4138 35.014 15.2458 35.2918 15.1877L35.9507 15.052C36.1057 15.0197 36.1187 14.9616 36.138 14.9034L36.2156 14.8776L36.3577 15.5817M38.8642 15.0908C38.8319 14.9422 38.7479 14.813 38.6252 14.729C38.5089 14.6515 38.3732 14.6192 38.244 14.6515C37.9598 14.7096 37.7854 15.0003 37.85 15.3039C37.8823 15.4525 37.9663 15.5817 38.089 15.6657C38.2053 15.7432 38.3409 15.7755 38.4702 15.7497C38.5994 15.7239 38.7156 15.6399 38.7932 15.5236C38.8707 15.4008 38.8965 15.2458 38.8707 15.0972M37.5787 14.5029C37.7014 14.2509 37.8823 14.0959 38.1148 14.0442C38.3603 13.9925 38.5864 14.0636 38.7996 14.2509C39.0128 14.4383 39.1549 14.6967 39.2195 15.0132C39.2841 15.3362 39.2583 15.627 39.1355 15.8854C39.0128 16.1438 38.8319 16.2923 38.5864 16.344C38.3474 16.3957 38.1213 16.3246 37.9146 16.1373C37.7014 15.95 37.5593 15.6916 37.4947 15.3685C37.4301 15.052 37.4559 14.7613 37.5787 14.5093" fill="#004E97"/>
<path d="M134.56 3.03423L134.536 13.8809H132.558V12.397H130.259V11.1634H132.558L132.57 4.01764C132.57 3.49393 132.395 3.40665 132.215 3.31354L132.191 3.30191V3.02841H134.548M131.924 9.07437V10.4069H127.885V12.0304H126.163V10.4069H122.898V9.07437L131.918 9.09183M127.129 12.4203V15.644L134.723 15.6615V16.9882L126.535 16.9708C125.598 16.9708 125.139 16.5227 125.145 15.5975V13.3979C125.145 12.8858 124.976 12.7927 124.795 12.6996L124.772 12.6822V12.4087H127.129M127.193 4.05256C126.687 4.05256 126.209 4.23877 125.86 4.57045C125.529 4.88468 125.348 5.29783 125.348 5.73425C125.348 6.67693 126.169 7.43341 127.187 7.43923C127.693 7.43923 128.165 7.25302 128.52 6.91551C128.845 6.60129 129.026 6.18814 129.032 5.75171C129.032 5.30947 128.845 4.8905 128.52 4.57045C128.17 4.23295 127.699 4.05256 127.199 4.05256M124.458 7.78837C123.719 7.22974 123.341 6.54892 123.347 5.75753C123.347 4.92541 123.713 4.25041 124.464 3.69178C125.209 3.12734 126.128 2.84802 127.187 2.84802C128.258 2.84802 129.177 3.13897 129.922 3.6976C130.673 4.26786 131.033 4.94287 131.033 5.76917C131.033 6.56055 130.655 7.24138 129.916 7.8C129.171 8.35863 128.246 8.64376 127.175 8.63794C126.111 8.63794 125.203 8.35281 124.458 7.78837Z" fill="#004E97"/>
<path d="M112.603 15.4697V13.8462H117.788V15.4756H112.603V15.4697ZM117.782 10.7971V12.4671H112.603V10.7971H110.183V11.1346L110.229 11.1579C110.404 11.251 110.561 11.3324 110.561 11.8212C110.561 11.8212 110.561 14.4223 110.561 15.4581C110.561 16.4997 111.166 16.8605 111.987 16.8605C112.807 16.8605 119.86 16.8489 119.86 16.8489V10.7913H117.788L117.782 10.7971Z" fill="#004E97"/>
<path d="M117.422 2.9762V3.3137L117.468 3.33697C117.643 3.43008 117.8 3.51155 117.794 4.00034V5.39109H116.112V6.76437H117.8V9.88918H119.848V2.9762H117.422Z" fill="#004E97"/>
<path d="M113.511 8.33541H110.049V6.43841H113.517V8.33541H113.511ZM115.553 3.20886H113.505V5.05931H110.037V3.21468H107.61V3.55218L107.657 3.57546C107.837 3.66856 107.989 3.75003 107.989 4.24465C107.989 4.24465 107.989 7.13088 107.989 8.32378C107.989 9.37702 108.605 9.72616 109.408 9.73198C110.089 9.73198 115.553 9.73198 115.553 9.73198V3.21468V3.20886Z" fill="#004E97"/>
<path d="M63.4775 11.7746V12.1063L63.5241 12.1354C63.7045 12.2227 63.8558 12.3041 63.8616 12.7988C63.8616 12.7988 63.8674 14.5037 63.8732 15.6152C63.8849 16.7033 64.5715 17.0001 65.2989 17.0001C66.0146 17.0001 73.6201 16.9594 73.6201 16.9594L73.6084 15.5744L65.9041 15.6152L65.8866 11.7688L63.4775 11.7804V11.7746Z" fill="#004E97"/>
<path d="M71.0254 3.16264V3.4885L71.0719 3.51178C71.2465 3.59907 71.3978 3.68635 71.4094 4.17515L71.4327 11.8097H73.4694L73.4577 7.20686L74.994 7.19522L74.9823 5.77538L73.4461 5.78702L73.4345 3.151L71.0254 3.16264Z" fill="#004E97"/>
<path d="M65.9512 9.1212C65.0783 9.1212 64.3742 8.28326 64.3626 7.25912C64.3626 6.20587 65.0667 5.37376 65.9337 5.36794C66.8007 5.36794 67.5165 6.20588 67.5165 7.24166C67.5281 8.26581 66.8182 9.10956 65.9512 9.11538M64.8688 2.88904L64.8805 3.87827L61.8662 3.89573L61.8778 5.30975H63.0184C62.5529 5.88001 62.3201 6.5201 62.3259 7.28239C62.3259 8.18434 62.6867 8.96409 63.385 9.59254C64.0891 10.221 64.9503 10.541 65.9512 10.5352C66.9578 10.5352 67.8191 10.2094 68.5115 9.56927C69.2156 8.93499 69.5648 8.15524 69.5648 7.25912C69.5589 6.50264 69.3262 5.86255 68.8607 5.29229H69.9896L69.9779 3.86663L66.9928 3.88409V2.89486H64.8688V2.88904Z" fill="#004E97"/>
<path d="M57.9857 3.02832V3.36001L58.0323 3.3891C58.2127 3.4822 58.3639 3.55785 58.3639 4.04665V7.01435H56.9383V3.03414H54.6514V3.36582L54.698 3.38328C54.8784 3.47639 55.0297 3.55785 55.0297 4.04665L55.0413 10.6512C54.8725 10.8491 54.5583 10.9364 54.1219 10.9422H50.4734L50.4617 4.89041H53.9357V3.49384L48.041 3.50548V3.84298L48.0817 3.87208C48.2563 3.96518 48.4076 4.04083 48.4134 4.53545C48.4134 4.53545 48.4251 9.98786 48.4309 10.9305C48.4309 11.879 48.9197 12.3271 49.8507 12.3271C50.7818 12.3213 54.0986 12.3155 54.0986 12.3155C54.4012 12.3097 54.698 12.2515 54.9947 12.1351L55.0471 12.1176L55.0587 16.8368H56.9616L56.9383 8.42837H58.3698L58.3872 16.8252H60.29L60.2609 3.01086H57.9857V3.02832Z" fill="#004E97"/>
<path d="M85.0742 3.005V3.34251L85.115 3.35997C85.2953 3.45889 85.4466 3.53454 85.4466 4.02915L85.4059 11.6637L87.4426 11.6753L87.4833 3.02246L85.0742 3.01082V3.005Z" fill="#004E97"/>
<path d="M77.9922 8.62608L78.0155 4.54695L80.8552 4.55859L80.8377 8.64354L77.9922 8.6319M75.6006 3.16785V3.49371L75.7228 3.54026C75.9032 3.59845 75.973 3.76721 75.9672 4.18036C75.9672 4.18036 75.9497 7.60775 75.9497 8.58535C75.9497 9.52803 76.4676 9.99355 77.3521 9.99937C78.1959 10.011 82.8511 10.0226 82.8511 10.0226L82.8802 3.19694L75.6006 3.17367V3.16785Z" fill="#004E97"/>
<path d="M77.4863 11.5531V11.879L77.5329 11.9022C77.7016 11.9953 77.8587 12.0768 77.8471 12.5714C77.8471 12.5714 77.8471 14.1251 77.8471 15.3936C77.8355 16.3305 78.3534 16.7844 79.2669 16.796C79.8139 16.796 87.5823 16.8251 87.5823 16.8251V15.446L79.8896 15.4111L79.9012 11.5647L77.4863 11.5531Z" fill="#004E97"/>
<path d="M89.9482 2.96411V4.37813L97.7283 4.35486L97.7399 7.74152L99.8231 7.72989L99.8057 2.94666L89.9482 2.96411Z" fill="#004E97"/>
<path d="M89.1279 8.48649V9.90051L93.754 9.88887V11.6753L89.7622 11.6811L89.768 13.0952L98.1765 13.0719L98.1881 16.9357L100.271 16.9299L100.254 11.652L95.8373 11.6637L95.8314 9.88306L101.173 9.8656L101.167 8.4574L89.1279 8.48649Z" fill="#004E97"/>
<path d="M108.194 34.022L109.953 24.8823H113L111.213 34.022H108.194Z" fill="#0E2B5E"/>
<path d="M106.015 34.2989C104.833 34.2989 104.187 33.4588 104.076 31.7786H101.694C101.51 32.2033 101.353 32.6002 101.224 32.9695L100.864 34.022H98.9248L103.287 24.8823H106.264L106.846 31.6124C106.938 32.5818 107.169 33.2095 107.538 33.4957C107.27 34.0312 106.763 34.2989 106.015 34.2989ZM102.124 30.7677H104.035L103.869 27.2088V26.8349L102.885 29.009L102.124 30.7677Z" fill="#0E2B5E"/>
<path d="M94.3995 23.0138V32.2638H92.8849V31.1954H90.4913V30.1406H92.8849V23.0138H94.3995ZM94.6835 33.7649V34.982H85.7175V31.3712H87.2186V33.7649H94.6835ZM84.0947 28.5043C86.3531 28.4908 89.3824 28.4637 91.9788 28.1391L92.06 29.221C91.0525 29.3901 90.0112 29.505 88.9767 29.5726V31.9257H87.4756V29.6538C86.3328 29.7011 85.2442 29.7079 84.2841 29.7079L84.0947 28.5043ZM88.0841 23.4601C89.8692 23.4601 91.1134 24.3391 91.1269 25.6238C91.1134 26.9356 89.8692 27.774 88.0841 27.774C86.272 27.774 85.0278 26.9356 85.0278 25.6238C85.0278 24.3391 86.272 23.4601 88.0841 23.4601ZM88.0841 24.569C87.1104 24.569 86.4478 24.9612 86.4478 25.6238C86.4478 26.2864 87.1104 26.6786 88.0841 26.6786C89.0172 26.6786 89.6799 26.2864 89.6934 25.6238C89.6799 24.9612 89.0172 24.569 88.0841 24.569Z" fill="#0E2B5E"/>
<path d="M76.7915 26.4755C76.7915 28.477 77.9681 30.5866 79.9425 31.4115L79.1176 32.6016C77.6706 31.9795 76.6157 30.6948 76.0613 29.1396C75.4933 30.8165 74.4249 32.2229 72.9915 32.8991L72.126 31.7226C74.0598 30.83 75.2634 28.5581 75.2634 26.4755V25.4477H72.5722V24.2036H79.4692V25.4477H76.7915V26.4755ZM82.3496 23V35.2251H80.835V23H82.3496Z" fill="#0E2B5E"/>
<path d="M67.097 24.0686V25.2722H66.0286V28.8829C66.5628 28.8491 67.0834 28.795 67.5838 28.7342L67.692 29.8431C65.2307 30.2488 62.4179 30.3029 60.3488 30.3029L60.1865 29.0858L61.593 29.0723V25.2722H60.5111V24.0686H67.097ZM69.8557 23.0138V26.5434H71.5597V27.8011H69.8557V32.0068H68.3546V23.0138H69.8557ZM70.3426 33.7649V34.982H62.0257V31.1549H63.5268V33.7649H70.3426ZM63.04 29.0317C63.5403 29.0249 64.0542 29.0046 64.5681 28.9776V25.2722H63.04V29.0317Z" fill="#0E2B5E"/>
<path d="M58.8462 23V35.2251H57.4127V29.0314H56.155V34.6301H54.7351V23.2164H56.155V27.7873H57.4127V23H58.8462ZM52.0439 26.1239C52.0439 28.3012 52.7742 30.3026 54.5863 31.2357L53.7073 32.3852C52.5443 31.7631 51.7802 30.688 51.3542 29.356C50.935 30.8774 50.1709 32.1012 48.9606 32.818L48.041 31.6685C49.8531 30.6407 50.5834 28.504 50.5834 26.1239V25.5424H48.4061V24.3388H54.0454V25.5424H52.0439V26.1239Z" fill="#0E2B5E"/>
</svg>
