<svg width="280" height="212" viewBox="0 0 280 212" fill="none" xmlns="http://www.w3.org/2000/svg">
<path d="M230 81C241.046 81 250 89.9543 250 101V108C250 119.046 241.046 128 230 128C227.791 128 226 129.791 226 132V134.5C226 138.09 228.91 141 232.5 141H244C255.046 141 264 149.954 264 161V168C264 179.046 255.046 188 244 188H50C38.9543 188 30 179.046 30 168V161C30 153.118 34.5592 146.302 41.1841 143.043C44.3395 141.491 47 138.623 47 135.106C47 131.182 43.8184 128 39.8937 128H36C24.9543 128 16 119.046 16 108V101C16 89.9543 24.9543 81 36 81H230Z" fill="#E1E7EF"/>
<rect x="65" y="30" width="169" height="34" rx="17" fill="#E1E7EF"/>
<path d="M59.8921 71.5127C58.4761 72.1085 57.7495 73.6962 58.1912 75.1671C58.9911 77.8322 60.0545 80.3822 61.3518 82.7884C62.0794 84.1377 63.7144 84.7427 65.1342 84.1646C68.3255 82.8654 72.1218 83.5113 74.7098 86.0994C77.2979 88.6875 77.9438 92.4837 76.6446 95.6741C76.0665 97.0939 76.6715 98.7289 78.0208 99.4565C80.427 100.754 82.978 101.818 85.6431 102.617C87.1139 103.059 88.7007 102.332 89.2974 100.916C90.6346 97.7416 93.7757 95.5117 97.4365 95.5117C101.097 95.5117 104.239 97.7406 105.576 100.915C106.171 102.331 107.758 103.058 109.23 102.616C111.895 101.816 114.446 100.753 116.852 99.4555C118.202 98.728 118.807 97.0929 118.228 95.6731C116.929 92.4828 117.574 88.6856 120.163 86.0984C122.752 83.5104 126.549 82.8645 129.739 84.1636C131.159 84.7418 132.793 84.1367 133.52 82.7875C134.818 80.3813 135.882 77.8303 136.682 75.1661C137.124 73.6953 136.397 72.1076 134.981 71.5118C131.806 70.1746 129.576 67.0344 129.576 63.3727C129.576 59.7109 131.806 56.5707 134.981 55.2335C136.397 54.6378 137.124 53.05 136.682 51.5792C135.882 48.9141 134.818 46.3631 133.52 43.9579C132.793 42.6086 131.159 42.0045 129.739 42.5817C126.549 43.8799 122.752 43.235 120.163 40.6469C117.574 38.0588 116.929 34.2625 118.228 31.0722C118.807 29.6524 118.202 28.0173 116.852 27.2898C114.446 25.9925 111.895 24.9282 109.23 24.1292C107.759 23.6875 106.171 24.4141 105.576 25.8301C104.239 29.0047 101.099 31.2337 97.4365 31.2337C93.7739 31.2337 90.6346 29.0047 89.2974 25.8292C88.7016 24.4141 87.1148 23.6875 85.6431 24.1282C82.978 24.9282 80.427 25.9916 78.0208 27.2889C76.6715 28.0164 76.0665 29.6515 76.6446 31.0713C77.9438 34.2616 77.2988 38.0579 74.7098 40.646C72.1218 43.234 68.3264 43.8799 65.1351 42.5808C63.7153 42.0026 62.0803 42.6077 61.3518 43.9569C60.0545 46.3631 58.9911 48.9141 58.1912 51.5792C57.7495 53.05 58.4761 54.6378 59.8921 55.2335C63.0667 56.5707 65.2957 59.7109 65.2957 63.3727C65.2957 67.0344 63.0667 70.1756 59.8921 71.5127ZM86.2509 52.1889C92.4283 46.0124 102.443 46.0124 108.62 52.1889C109.027 52.5944 109.404 53.0148 109.755 53.4518C114.772 59.6636 114.393 68.7864 108.62 74.5583C102.848 80.3302 93.7266 80.7098 87.5138 75.6932C87.0786 75.3424 86.6564 74.9638 86.2509 74.5583C80.0725 68.3809 80.0725 58.3663 86.2509 52.1889Z" fill="url(#paint0_linear_1172_26396)"/>
<path d="M118 85H219C218.107 86.4098 218.039 88.1904 218.822 89.6642L219 90H118C119.14 88.5284 119.14 86.4716 118 85Z" fill="url(#paint1_linear_1172_26396)"/>
<path d="M118.062 132H219.062C218.169 133.41 218.101 135.19 218.884 136.664L219.062 137H118.062C119.203 135.528 119.203 133.472 118.062 132Z" fill="url(#paint2_linear_1172_26396)"/>
<rect x="110.062" y="44.4395" width="118" height="42" rx="5" fill="url(#paint3_linear_1172_26396)"/>
<path d="M110.062 94.4395C110.062 91.678 112.301 89.4395 115.062 89.4395H223.062C225.824 89.4395 228.062 91.678 228.062 94.4395V127.439C228.062 130.201 225.824 132.439 223.062 132.439H115.062C112.301 132.439 110.062 130.201 110.062 127.439V94.4395Z" fill="url(#paint4_linear_1172_26396)"/>
<path d="M110.062 141.439C110.062 138.678 112.301 136.439 115.062 136.439H223.062C225.824 136.439 228.062 138.678 228.062 141.439V173.439C228.062 176.201 225.824 178.439 223.062 178.439H115.062C112.301 178.439 110.062 176.201 110.062 173.439V141.439Z" fill="url(#paint5_linear_1172_26396)"/>
<rect x="161.062" y="65.4395" width="59" height="4" rx="2" fill="url(#paint6_linear_1172_26396)"/>
<rect x="161.062" y="111.439" width="59" height="4" rx="2" fill="url(#paint7_linear_1172_26396)"/>
<rect x="161.062" y="157.439" width="59" height="4" rx="2" fill="url(#paint8_linear_1172_26396)"/>
<rect x="161.062" y="75.4395" width="59" height="4" rx="2" fill="url(#paint9_linear_1172_26396)"/>
<rect x="161.062" y="121.439" width="59" height="4" rx="2" fill="url(#paint10_linear_1172_26396)"/>
<rect x="161.062" y="167.439" width="59" height="4" rx="2" fill="url(#paint11_linear_1172_26396)"/>
<path d="M58.2305 166.439H138.23V173.439C138.23 177.858 134.649 181.439 130.23 181.439H66.2305C61.8122 181.439 58.2305 177.858 58.2305 173.439V166.439Z" fill="url(#paint12_linear_1172_26396)"/>
<path d="M94.0282 109.957C95.9974 106.903 100.464 106.903 102.433 109.957L137.426 164.23C139.572 167.557 137.183 171.939 133.224 171.939H63.2357C59.2768 171.939 56.8882 167.557 59.0335 164.23L94.0282 109.957Z" fill="url(#paint13_linear_1172_26396)"/>
<path d="M94.3138 161.939C94.3138 161.265 94.5043 160.636 94.8339 160.101C94.947 159.919 95.0772 159.746 95.2207 159.588C95.2582 159.546 95.2982 159.504 95.3382 159.464C95.9714 158.831 96.8465 158.439 97.8131 158.439C99.0719 158.439 100.176 159.104 100.792 160.101C101.122 160.636 101.312 161.265 101.312 161.939C101.312 162.614 101.113 163.273 100.768 163.816C100.63 164.033 100.468 164.233 100.287 164.414C99.6543 165.048 98.7785 165.439 97.8125 165.439C96.8465 165.439 95.9714 165.048 95.3375 164.414C95.1565 164.233 94.9952 164.033 94.8568 163.816C94.7533 163.653 94.6631 163.482 94.5875 163.302C94.4109 162.883 94.3125 162.423 94.3125 161.939L94.3138 161.939Z" fill="url(#paint14_linear_1172_26396)"/>
<path d="M97.813 124.44C100.866 124.44 103.288 127.015 103.099 130.063L101.861 150.05C101.729 152.188 99.9552 153.854 97.813 153.854C95.6708 153.854 93.8987 152.188 93.7652 150.05L92.527 130.063C92.3385 127.015 94.7586 124.44 97.813 124.44Z" fill="url(#paint15_linear_1172_26396)"/>
<defs>
<linearGradient id="paint0_linear_1172_26396" x1="97.0625" y1="73" x2="53.0625" y2="45" gradientUnits="userSpaceOnUse">
<stop stop-color="#9DB4CE"/>
<stop offset="1" stop-color="#E3E9EF"/>
</linearGradient>
<linearGradient id="paint1_linear_1172_26396" x1="174.439" y1="90.0229" x2="174.439" y2="89.395" gradientUnits="userSpaceOnUse">
<stop stop-color="#6F839A"/>
<stop offset="1" stop-color="#738EAE"/>
</linearGradient>
<linearGradient id="paint2_linear_1172_26396" x1="174.501" y1="137.023" x2="174.501" y2="136.395" gradientUnits="userSpaceOnUse">
<stop stop-color="#6F839A"/>
<stop offset="1" stop-color="#738EAE"/>
</linearGradient>
<linearGradient id="paint3_linear_1172_26396" x1="241.824" y1="97.6972" x2="195.165" y2="31.052" gradientUnits="userSpaceOnUse">
<stop stop-color="#95AFCC"/>
<stop offset="1" stop-color="#C6D3E2"/>
</linearGradient>
<linearGradient id="paint4_linear_1172_26396" x1="241.824" y1="143.965" x2="193.68" y2="76.7978" gradientUnits="userSpaceOnUse">
<stop stop-color="#95AFCC"/>
<stop offset="1" stop-color="#C6D3E2"/>
</linearGradient>
<linearGradient id="paint5_linear_1172_26396" x1="241.824" y1="189.697" x2="195.165" y2="123.052" gradientUnits="userSpaceOnUse">
<stop stop-color="#95AFCC"/>
<stop offset="1" stop-color="#C6D3E2"/>
</linearGradient>
<linearGradient id="paint6_linear_1172_26396" x1="226.943" y1="70.5116" x2="225.704" y2="61.2187" gradientUnits="userSpaceOnUse">
<stop stop-color="#A7BBD2"/>
<stop offset="1" stop-color="#E7EBF0"/>
</linearGradient>
<linearGradient id="paint7_linear_1172_26396" x1="226.943" y1="116.512" x2="225.704" y2="107.219" gradientUnits="userSpaceOnUse">
<stop stop-color="#A7BBD2"/>
<stop offset="1" stop-color="#E7EBF0"/>
</linearGradient>
<linearGradient id="paint8_linear_1172_26396" x1="226.943" y1="162.512" x2="225.704" y2="153.219" gradientUnits="userSpaceOnUse">
<stop stop-color="#A7BBD2"/>
<stop offset="1" stop-color="#E7EBF0"/>
</linearGradient>
<linearGradient id="paint9_linear_1172_26396" x1="226.943" y1="80.5116" x2="225.704" y2="71.2187" gradientUnits="userSpaceOnUse">
<stop stop-color="#A7BBD2"/>
<stop offset="1" stop-color="#E7EBF0"/>
</linearGradient>
<linearGradient id="paint10_linear_1172_26396" x1="226.943" y1="126.512" x2="225.704" y2="117.219" gradientUnits="userSpaceOnUse">
<stop stop-color="#A7BBD2"/>
<stop offset="1" stop-color="#E7EBF0"/>
</linearGradient>
<linearGradient id="paint11_linear_1172_26396" x1="226.943" y1="172.512" x2="225.704" y2="163.219" gradientUnits="userSpaceOnUse">
<stop stop-color="#A7BBD2"/>
<stop offset="1" stop-color="#E7EBF0"/>
</linearGradient>
<linearGradient id="paint12_linear_1172_26396" x1="102.932" y1="181.508" x2="102.932" y2="168.939" gradientUnits="userSpaceOnUse">
<stop stop-color="#B2C4D9"/>
<stop offset="1" stop-color="#96ADC8"/>
</linearGradient>
<linearGradient id="paint13_linear_1172_26396" x1="161.126" y1="224.78" x2="63.6919" y2="175.244" gradientUnits="userSpaceOnUse">
<stop stop-color="#A7BBD2"/>
<stop offset="1" stop-color="white"/>
</linearGradient>
<linearGradient id="paint14_linear_1172_26396" x1="98.2526" y1="165.239" x2="95.8072" y2="160.926" gradientUnits="userSpaceOnUse">
<stop stop-color="#ADC1D6"/>
<stop offset="1" stop-color="#678AB3"/>
</linearGradient>
<linearGradient id="paint15_linear_1172_26396" x1="98.4789" y1="153.012" x2="81.5142" y2="139.35" gradientUnits="userSpaceOnUse">
<stop stop-color="#ADC1D6"/>
<stop offset="1" stop-color="#91A5BC"/>
</linearGradient>
</defs>
</svg>
