<svg width="280" height="212" viewBox="0 0 280 212" fill="none" xmlns="http://www.w3.org/2000/svg">
<path d="M230 137C241.046 137 250 128.046 250 117V110C250 98.9543 241.046 90 230 90C227.791 90 226 88.2091 226 86V83.5C226 79.9101 228.91 77 232.5 77H244C255.046 77 264 68.0457 264 57V50C264 38.9543 255.046 30 244 30H50C38.9543 30 30 38.9543 30 50V57C30 64.8817 34.5592 71.6984 41.1841 74.957C44.3395 76.5091 47 79.3772 47 82.8937C47 86.8184 43.8184 90 39.8937 90H36C24.9543 90 16 98.9543 16 110V117C16 128.046 24.9543 137 36 137H230Z" fill="#E1E7EF"/>
<rect width="169" height="34" rx="17" transform="matrix(1 0 0 -1 65 188)" fill="#E1E7EF"/>
<rect x="65" y="50" width="160" height="116" rx="8" fill="url(#paint0_linear_1170_26053)"/>
<rect x="71" y="55" width="147" height="105" rx="6" fill="url(#paint1_linear_1170_26053)"/>
<path opacity="0.2" d="M146.502 55.8391C146.502 95.0222 108.418 124.614 71.0003 130.847C71.001 125.347 71 117.394 71 111.268V59.7395C71 49.8381 103.651 52.2646 135 52.2577C138.917 52.2577 142.809 53.5789 146.502 53.7577C146.547 54.8557 146.502 54.7301 146.502 55.8377V55.8391Z" fill="white"/>
<path d="M170.416 75.7778H122.06C118.736 75.7778 116.016 78.4493 116.016 81.7143V129.206C116.016 132.471 118.736 135.143 122.06 135.143H170.416C173.74 135.143 176.46 132.471 176.46 129.206V81.7143C176.46 78.4493 173.74 75.7778 170.416 75.7778ZM134.149 123.27C130.825 123.27 128.105 120.598 128.105 117.333C128.105 114.068 130.825 111.397 134.149 111.397C137.473 111.397 140.193 114.068 140.193 117.333C140.193 120.598 137.473 123.27 134.149 123.27ZM148.958 118.818C147.447 118.818 146.238 117.927 145.936 116.443C144.727 111.1 140.496 106.648 135.056 105.757C133.545 105.46 132.638 104.273 132.638 102.789C132.638 101.008 134.149 99.5239 135.962 99.8207C144.122 101.305 150.469 107.538 151.98 115.552C152.282 117.333 150.771 118.818 148.958 118.818ZM161.349 118.818C159.838 118.818 158.629 117.63 158.327 116.146C157.118 104.273 147.447 94.7747 135.358 93.5874C133.847 93.5874 132.638 92.1032 132.638 90.6191C132.638 88.8381 134.149 87.354 135.962 87.6508C150.771 89.135 162.558 100.711 164.069 115.256C164.673 117.037 163.162 118.818 161.349 118.818Z" fill="url(#paint2_linear_1170_26053)"/>
<circle cx="146" cy="44.5" r="22" fill="url(#paint3_linear_1170_26053)"/>
<path d="M143.058 54.6377C143.058 54.2523 143.194 53.893 143.429 53.5874C143.51 53.4829 143.603 53.3846 143.705 53.2942C143.732 53.2699 143.761 53.2463 143.789 53.2234C144.242 52.8616 144.867 52.6377 145.557 52.6377C146.456 52.6377 147.245 53.0177 147.685 53.5874C147.921 53.8926 148.057 54.2523 148.057 54.6377C148.057 55.0231 147.914 55.3998 147.667 55.7097C147.569 55.8338 147.454 55.9485 147.324 56.052C146.872 56.4138 146.247 56.6377 145.557 56.6377C144.867 56.6377 144.242 56.4141 143.789 56.052C143.66 55.9485 143.544 55.8338 143.445 55.7097C143.371 55.6168 143.307 55.5192 143.253 55.4165C143.127 55.177 143.057 54.9139 143.057 54.6377L143.058 54.6377Z" fill="white"/>
<path d="M145.557 31.6377C147.574 31.6377 149.174 33.2138 149.05 35.0787L148.232 47.3097C148.144 48.6181 146.972 49.6377 145.557 49.6377C144.141 49.6377 142.97 48.6181 142.882 47.3097L142.063 35.0787C141.939 33.2138 143.538 31.6377 145.557 31.6377Z" fill="white"/>
<defs>
<linearGradient id="paint0_linear_1170_26053" x1="286.14" y1="110.639" x2="195.418" y2="32.2494" gradientUnits="userSpaceOnUse">
<stop stop-color="#B4C4D6"/>
<stop offset="1" stop-color="white"/>
</linearGradient>
<linearGradient id="paint1_linear_1170_26053" x1="211.234" y1="135.041" x2="125.25" y2="29.2261" gradientUnits="userSpaceOnUse">
<stop stop-color="#99B0CB"/>
<stop offset="1" stop-color="#CBD8E7"/>
</linearGradient>
<linearGradient id="paint2_linear_1170_26053" x1="141.705" y1="75.7778" x2="163.185" y2="131.449" gradientUnits="userSpaceOnUse">
<stop stop-color="white"/>
<stop offset="1" stop-color="#E1E7EF"/>
</linearGradient>
<linearGradient id="paint3_linear_1170_26053" x1="145.791" y1="49.8792" x2="134.298" y2="71.3721" gradientUnits="userSpaceOnUse">
<stop stop-color="#9DB4CE"/>
<stop offset="1" stop-color="#839FBE"/>
</linearGradient>
</defs>
</svg>
