<svg width="84" height="80" viewBox="0 0 84 80" fill="none" xmlns="http://www.w3.org/2000/svg">
<path d="M53.1951 44.4726H48.7461C49.3621 46.5533 53.8111 47.8401 56.3299 44.6505L53.3046 37.6279H53.1814V44.4726H53.1951Z" fill="#004E97"/>
<path d="M64.8183 37.6279H64.6814V44.4726H60.2461C60.8484 46.5533 65.3248 47.8401 67.8436 44.6505L64.8183 37.6279Z" fill="#004E97"/>
<path d="M28.2756 45.9409L28.1113 45.6808L28.0566 45.5713C27.2489 47.3235 26.6192 49.1168 26.1538 50.8964C25.5377 58.5898 25.5925 66.2147 25.7157 74.5515C25.7568 76.8102 25.3461 76.9471 24.6069 77.3851C23.8677 77.8369 20.8834 79.0278 20.8149 79.2606C20.7328 79.4796 20.8423 79.945 21.1982 79.9998H28.2482C29.0148 75.5508 29.9594 69.3769 29.9594 69.3769C31.1503 72.4981 33.5733 77.5083 35.6267 79.9587H39.3639C48.1661 79.9587 56.3386 78.1517 61.7595 74.0313C55.6404 70.1024 50.8355 64.5583 47.3173 58.7404C39.6377 57.6315 32.6151 52.8403 28.2756 45.9409Z" fill="#004E97"/>
<path d="M28.0522 45.5703C28.8188 43.8865 29.7359 42.2164 30.7763 40.6011C29.8865 38.096 29.4485 35.7414 29.2021 33.866L29.0378 33.9618C28.4355 34.3314 27.4088 35.9194 27.0392 36.7681L26.56 32.894L23.8906 33.2226C23.9317 33.5785 23.9728 33.9344 24.0138 34.304C24.5888 38.4245 26.0125 42.2301 28.0522 45.5703Z" fill="#F6AC19"/>
<path d="M30.814 40.7106L30.7867 40.6011C29.7463 42.2164 28.8291 43.8865 28.0625 45.5703L28.1173 45.6798C28.172 45.7619 28.2268 45.8577 28.2815 45.9399C32.621 52.8256 39.6436 57.6305 47.3233 58.7393C46.6936 57.699 46.1049 56.6312 45.5574 55.5771L45.4752 55.4265C36.7689 52.0042 32.7579 46.0357 30.8277 40.7106" fill="#EF7A00"/>
<path d="M40.1291 30.4413C39.0066 30.6604 37.7746 30.9205 37.2407 31.0711L36.8026 29.1546C37.4597 28.9903 38.4043 28.4975 38.4043 28.4975C38.4043 28.4975 38.9792 26.978 39.1572 25.5954C39.5405 22.6659 38.6507 20.8999 38.6507 20.8999C35.8855 20.6672 33.3666 22.0635 32.0525 23.8021C32.162 26.5399 33.7636 28.1826 33.7636 28.1826L33.0244 32.1662C31.9429 32.5632 30.0128 33.4119 29.2188 33.85H29.1914C29.4378 35.7391 29.8759 38.0936 30.7657 40.5988C33.216 36.8205 36.4056 33.3161 40.1154 30.4413" fill="#00998A"/>
<path d="M60.8937 43.807L64.8499 35.0459V34.7036H59.0183C59.0183 34.7036 58.5528 26.7091 58.416 23.5606L61.8656 21.1923V21.0417H61.7424C58.8129 20.9185 54.4598 22.0684 50.9279 23.7659C47.3824 25.3675 43.2072 27.8864 40.1271 30.4463C36.4173 33.321 33.2414 36.8255 30.7773 40.6037L30.8047 40.7132C32.7349 46.0383 36.7595 52.0068 45.4522 55.4292C41.9615 48.6667 40.1956 41.8631 40.1271 37.0719C40.5652 36.2094 44.9731 33.3073 44.9731 33.3073C48.8198 27.9822 54.5556 23.6838 54.5556 23.6838C55.0758 23.3963 56.7732 23.4647 57.7178 23.5195C57.5809 26.6543 57.0196 34.7036 57.0196 34.7036H51.147V35.1006L48.8198 43.807H49.2305L52.9539 35.525C56.1025 36.2642 59.7712 36.141 62.6459 35.6208L60.4557 43.807H60.8526H60.8937Z" fill="#004E97"/>
<path d="M26.1623 50.895C26.6141 49.1154 27.2575 47.3358 28.0651 45.5699C26.0254 42.2297 24.6017 38.4104 24.0268 34.3036C23.972 33.9477 23.931 33.5918 23.9036 33.2222L18.7975 33.8656C18.1952 33.934 17.6476 34.2626 17.3875 34.5911C17.1822 34.8649 16.9495 35.3577 17.0042 35.96L18.4416 47.6096L25.6558 46.7198L26.1623 50.8676V50.9224V50.895Z" fill="#C8007E"/>
<path d="M32.2422 0.438056L32.2969 0.643395H32.338C32.4612 0.670774 32.5707 0.698152 32.6666 0.999316L34.0081 5.77687L35.2812 5.42095L33.7617 0L32.2559 0.424367L32.2422 0.438056Z" fill="#004E97"/>
<path d="M28.8234 5.21589L28.1116 2.656L29.8912 2.1495L30.6167 4.70939L28.8371 5.21589M26.3594 2.23163L26.4141 2.43697H26.4963C26.6195 2.43697 26.6879 2.54648 26.7564 2.79289C26.7564 2.79289 27.3587 4.9421 27.5367 5.54443C27.7009 6.13307 28.1116 6.33841 28.6729 6.17414C29.2067 6.02356 32.1226 5.2022 32.1226 5.2022L30.9179 0.931152L26.3594 2.21794V2.23163Z" fill="#004E97"/>
<path d="M29.0234 7.14556L29.0782 7.3509H29.1193C29.2425 7.39197 29.352 7.40565 29.4341 7.72051C29.4341 7.72051 29.7079 8.69244 29.9406 9.48642C30.1049 10.0751 30.5019 10.2667 31.0768 10.1024C31.4191 10.0066 36.2787 8.63769 36.2787 8.63769L36.0323 7.77526L31.2137 9.1305L30.5293 6.72119L29.0234 7.14556Z" fill="#004E97"/>
<path d="M12.875 18.836L13.0393 18.9866H13.0667C13.1899 18.9318 13.2994 18.8908 13.5321 19.1098C13.5321 19.1098 14.3398 19.8627 14.8736 20.3555C15.3938 20.8346 15.8456 20.643 16.1604 20.2871C16.4753 19.9448 19.8428 16.3172 19.8428 16.3172L19.1857 15.7012L15.7771 19.3836L13.9428 17.6861L12.875 18.836Z" fill="#004E97"/>
<path d="M12.1289 11.4302L12.2932 11.5808H12.3206C12.4438 11.526 12.5533 11.4986 12.786 11.704L16.4273 15.0852L17.3308 14.1133L15.1405 12.0736L15.8113 11.3343L15.1269 10.7046L14.4561 11.4439L13.1967 10.2803L12.1289 11.4302Z" fill="#004E97"/>
<path d="M12.7086 16.48C12.3253 16.8907 11.6134 16.8633 11.1206 16.4116C10.6141 15.9462 10.532 15.2343 10.9153 14.8236C11.2986 14.413 12.0104 14.4403 12.5032 14.9058C12.9961 15.3575 13.0782 16.0694 12.6949 16.48M9.25889 14.2213L9.73801 14.6594L8.41016 16.0967L9.09462 16.7128L9.60112 16.1652C9.66957 16.6443 9.86122 17.0276 10.2308 17.3698C10.6552 17.7668 11.1891 17.9448 11.8051 17.89C12.4211 17.8353 12.955 17.5615 13.393 17.0824C13.8448 16.6032 14.0638 16.0557 14.0775 15.4397C14.0775 14.8236 13.8722 14.3171 13.4478 13.9065C13.0782 13.5779 12.6812 13.4 12.2021 13.3726L12.7086 12.8387L12.0241 12.209L10.71 13.6327L10.2308 13.1946L9.28627 14.2076L9.25889 14.2213Z" fill="#004E97"/>
<path d="M1.05407 30.7591L1.2731 30.8002L1.30048 30.7728C1.38262 30.677 1.45106 30.5812 1.76591 30.6496L3.65503 31.0603L3.46338 31.9638L0.93087 31.4162L0.616017 32.8673L0.821356 32.9083V32.881C0.93087 32.7851 0.999316 32.6893 1.31417 32.7715L5.51677 33.6886C5.6126 33.8255 5.62628 34.0309 5.57153 34.3183L5.06503 36.6455L1.21834 35.8105L1.69747 33.6065L0.807666 33.4148L0 37.1657L0.219028 37.2205L0.246407 37.1931C0.328542 37.0973 0.396988 37.0151 0.711841 37.0699C0.711841 37.0699 4.17522 37.8228 4.77755 37.946C5.37988 38.0829 5.7358 37.8228 5.859 37.2342C5.98221 36.6455 6.44764 34.5374 6.44764 34.5374C6.48871 34.3457 6.48871 34.1541 6.44764 33.9487V33.9077L9.44559 34.5511L9.70568 33.3464L4.36687 32.1828L4.55852 31.2793L9.89733 32.4429L10.1574 31.2383L1.36893 29.3354L1.05407 30.7865V30.7591Z" fill="#004E97"/>
<path d="M50.1722 0.148438L49.8984 1.02455L54.7581 2.47561L54.1284 4.58376L55.4289 4.96706L56.3187 1.9828L50.1722 0.148438Z" fill="#004E97"/>
<path d="M48.6256 3.43359L48.3518 4.30971L51.2402 5.17213L50.9117 6.28096L48.4203 5.54174L48.1602 6.41785L53.4031 7.97843L52.6776 10.3877L53.9781 10.7847L54.9637 7.48561L52.2122 6.66426L52.5407 5.55543L55.8672 6.55474L56.1273 5.66494L48.6256 3.43359Z" fill="#004E97"/>
<path d="M66.4876 17.371L67.2405 16.7139L69.3349 19.1233L68.582 19.7803L66.4876 17.371ZM70.7586 17.8912L69.9783 18.562L67.8839 16.1527L68.6642 15.4682L67.6922 14.3457L67.5416 14.4826V14.51C67.5827 14.6332 67.5964 14.729 67.3774 14.9343C67.3774 14.9343 66.1727 15.9884 65.6799 16.4128C65.2008 16.8371 65.2692 17.2615 65.5978 17.6448C65.9263 18.0281 68.7737 21.3135 68.7737 21.3135L71.5937 18.8632L70.7586 17.9049V17.8912Z" fill="#004E97"/>
<path d="M74.2558 14.5815L74.1053 14.7184V14.7458C74.1463 14.869 74.16 14.9648 73.941 15.1702L73.2976 15.7314L72.6131 14.9512L71.9697 15.5124L72.6542 16.2927L71.2031 17.5521L72.0382 18.5104L75.2551 15.7178L74.2695 14.5952L74.2558 14.5815Z" fill="#004E97"/>
<path d="M70.1859 14.9084L68.7896 13.2931L69.6657 12.5265L71.0757 14.1418L70.1859 14.9084ZM73.3892 13.7996L72.5541 12.8414L71.6917 13.5943L70.2954 11.9789L71.1578 11.2397L70.1722 10.1035L70.0216 10.2404V10.2678C70.0627 10.391 70.0764 10.5005 69.8574 10.6922C69.8574 10.6922 68.5158 11.8557 67.9545 12.3349C67.4617 12.7592 67.5439 13.1973 67.8724 13.5669C68.1462 13.8818 70.3502 16.428 70.3502 16.428L73.3892 13.7996Z" fill="#004E97"/>
<path d="M83.9656 36.5081L77.1072 37.9181L76.8472 36.6587L77.778 36.4671L77.4769 35.016L78.2571 34.8517L78.5583 36.3028L83.0758 35.3719C83.4043 35.3035 83.4454 35.1803 83.4728 35.0571L83.6507 35.0023L83.9519 36.4944M79.7903 35.632L78.9416 35.81L78.4214 33.2501L77.3947 33.4554L77.1757 32.374L78.2024 32.1686L77.778 30.1016L78.6268 29.9236L79.7903 35.632ZM77.0525 33.0311L75.0128 33.4417L75.9984 38.2467L75.1634 38.4246L74.0956 33.2501C73.9724 32.6614 74.1914 32.3055 74.7801 32.1823L76.1764 31.8948C76.5049 31.8264 76.5323 31.7032 76.5734 31.58L76.7376 31.5252L77.0388 33.0174M82.3502 31.977C82.2818 31.6621 82.1038 31.3883 81.8437 31.2104C81.5973 31.0461 81.3098 30.9777 81.0361 31.0461C80.4337 31.1693 80.0641 31.7853 80.201 32.4287C80.2695 32.7436 80.4474 33.0174 80.7075 33.1953C80.9539 33.3596 81.2414 33.428 81.5152 33.3733C81.789 33.3185 82.0354 33.1406 82.1997 32.8942C82.3639 32.6341 82.4187 32.3055 82.3639 31.9907M79.6261 30.7313C79.8862 30.1974 80.2695 29.8688 80.7623 29.7593C81.2825 29.6498 81.7616 29.8004 82.2133 30.1974C82.6651 30.5944 82.9662 31.1419 83.1031 31.8127C83.24 32.4972 83.1853 33.1132 82.9252 33.6608C82.6651 34.2083 82.2818 34.5232 81.7616 34.6327C81.2551 34.7422 80.776 34.5916 80.3379 34.1946C79.8862 33.7977 79.585 33.2501 79.4481 32.5656C79.3112 31.8948 79.366 31.2788 79.6261 30.7449" fill="#004E97"/>
</svg>
