<svg width="280" height="212" viewBox="0 0 280 212" fill="none" xmlns="http://www.w3.org/2000/svg">
<path d="M230 137C241.046 137 250 128.046 250 117V110C250 98.9543 241.046 90 230 90C227.791 90 226 88.2091 226 86V83.5C226 79.9101 228.91 77 232.5 77H244C255.046 77 264 68.0457 264 57V50C264 38.9543 255.046 30 244 30H50C38.9543 30 30 38.9543 30 50V57C30 64.8817 34.5592 71.6984 41.1841 74.957C44.3395 76.5091 47 79.3772 47 82.8937C47 86.8184 43.8184 90 39.8937 90H36C24.9543 90 16 98.9543 16 110V117C16 128.046 24.9543 137 36 137H230Z" fill="#E1E7EF"/>
<rect width="169" height="34" rx="17" transform="matrix(1 0 0 -1 65 188)" fill="#E1E7EF"/>
<path d="M31.8296 63.5127C30.4136 64.1085 29.687 65.6962 30.1287 67.1671C30.9286 69.8322 31.992 72.3822 33.2893 74.7884C34.0169 76.1377 35.6519 76.7427 37.0717 76.1646C40.263 74.8654 44.0593 75.5113 46.6473 78.0994C49.2354 80.6875 49.8813 84.4837 48.5821 87.6741C48.004 89.0939 48.609 90.7289 49.9583 91.4565C52.3645 92.7537 54.9155 93.8181 57.5806 94.6171C59.0514 95.0588 60.6382 94.3322 61.2349 92.9161C62.5721 89.7416 65.7132 87.5117 69.374 87.5117C73.0349 87.5117 76.176 89.7406 77.5132 92.9152C78.1089 94.3313 79.6958 95.0579 81.1675 94.6162C83.8326 93.8163 86.3836 92.7528 88.7898 91.4555C90.139 90.728 90.7441 89.0929 90.1659 87.6731C88.8668 84.4828 89.5117 80.6856 92.1007 78.0984C94.6898 75.5104 98.4861 74.8645 101.676 76.1636C103.096 76.7418 104.73 76.1367 105.458 74.7875C106.755 72.3813 107.819 69.8303 108.619 67.1661C109.061 65.6953 108.335 64.1076 106.918 63.5118C103.744 62.1746 101.514 59.0344 101.514 55.3727C101.514 51.7109 103.744 48.5707 106.918 47.2335C108.335 46.6378 109.061 45.05 108.619 43.5792C107.819 40.9141 106.755 38.3631 105.458 35.9579C104.73 34.6086 103.096 34.0045 101.676 34.5817C98.4861 35.8799 94.6898 35.235 92.1007 32.6469C89.5117 30.0588 88.8668 26.2625 90.1659 23.0722C90.7441 21.6524 90.139 20.0173 88.7898 19.2898C86.3836 17.9925 83.8326 16.9282 81.1675 16.1292C79.6967 15.6875 78.1089 16.4141 77.5132 17.8301C76.1769 21.0047 73.0367 23.2337 69.374 23.2337C65.7114 23.2337 62.5721 21.0047 61.2349 17.8292C60.6391 16.4141 59.0523 15.6875 57.5806 16.1282C54.9155 16.9282 52.3645 17.9916 49.9583 19.2889C48.609 20.0164 48.004 21.6515 48.5821 23.0713C49.8813 26.2616 49.2363 30.0579 46.6473 32.646C44.0593 35.234 40.2639 35.8799 37.0726 34.5808C35.6528 34.0026 34.0178 34.6077 33.2893 35.9569C31.992 38.3631 30.9286 40.9141 30.1287 43.5792C29.687 45.05 30.4136 46.6378 31.8296 47.2335C35.0042 48.5707 37.2332 51.7109 37.2332 55.3727C37.2332 59.0344 35.0042 62.1756 31.8296 63.5127ZM58.1884 44.1889C64.3658 38.0124 74.3804 38.0124 80.5578 44.1889C80.9643 44.5944 81.342 45.0148 81.6927 45.4518C86.7093 51.6636 86.3307 60.7864 80.5578 66.5583C74.7859 72.3302 65.6641 72.7098 59.4513 67.6932C59.0161 67.3424 58.5939 66.9638 58.1884 66.5583C52.01 60.3809 52.01 50.3663 58.1884 44.1889Z" fill="url(#paint0_linear_1168_24587)"/>
<path d="M226.997 180.403C227.283 181.539 228.395 182.269 229.554 182.105C231.653 181.81 233.696 181.302 235.658 180.602C236.758 180.21 237.402 179.048 237.13 177.912C236.519 175.359 237.442 172.574 239.69 170.923C241.937 169.271 244.871 169.222 247.124 170.568C248.127 171.167 249.428 170.899 250.131 169.967C251.386 168.304 252.481 166.505 253.39 164.59C253.892 163.533 253.527 162.254 252.529 161.641C250.292 160.269 248.974 157.646 249.396 154.889C249.817 152.132 251.858 150.023 254.403 149.381C255.538 149.095 256.268 147.984 256.104 146.824C255.809 144.725 255.301 142.681 254.601 140.72C254.209 139.62 253.047 138.976 251.911 139.248C249.358 139.859 246.573 138.936 244.922 136.688C243.271 134.44 243.221 131.506 244.567 129.253C245.166 128.25 244.899 126.95 243.966 126.247C242.303 124.993 240.504 123.897 238.59 122.988C237.533 122.486 236.253 122.85 235.642 123.848C234.269 126.085 231.647 127.403 228.889 126.982C226.131 126.56 224.022 124.519 223.381 121.974C223.095 120.839 221.983 120.109 220.824 120.272C218.725 120.568 216.681 121.076 214.72 121.776C213.62 122.169 212.977 123.33 213.248 124.466C213.858 127.018 212.936 129.803 210.688 131.455C208.441 133.107 205.507 133.156 203.254 131.81C202.251 131.211 200.95 131.478 200.246 132.411C198.992 134.074 197.897 135.873 196.988 137.788C196.486 138.845 196.851 140.124 197.849 140.736C200.086 142.108 201.403 144.73 200.982 147.488C200.56 150.247 198.52 152.355 195.974 152.996C194.839 153.282 194.109 154.394 194.272 155.553C194.568 157.652 195.075 159.696 195.775 161.658C196.168 162.758 197.33 163.402 198.465 163.13C201.018 162.518 203.803 163.441 205.454 165.689C207.106 167.936 207.155 170.869 205.809 173.123C205.21 174.126 205.478 175.427 206.41 176.131C208.073 177.385 209.872 178.48 211.787 179.389C212.844 179.891 214.124 179.527 214.736 178.529C216.108 176.292 218.73 174.975 221.488 175.396C224.246 175.818 226.355 177.858 226.997 180.403ZM215.477 158.326C211.536 152.962 212.689 145.419 218.053 141.478C218.405 141.218 218.765 140.982 219.135 140.768C224.391 137.705 231.218 139.041 234.901 144.053C238.584 149.065 237.82 155.979 233.326 160.081C233.012 160.368 232.678 160.643 232.326 160.901C226.962 164.843 219.419 163.69 215.477 158.326Z" fill="url(#paint1_linear_1168_24587)"/>
<rect x="65" y="50" width="160" height="116" rx="8" fill="url(#paint2_linear_1168_24587)"/>
<rect x="71" y="55" width="147" height="105" rx="6" fill="url(#paint3_linear_1168_24587)"/>
<path opacity="0.2" d="M146.502 55.8391C146.502 95.0222 108.418 124.614 71.0003 130.847C71.001 125.347 71 117.394 71 111.268V59.7395C71 49.8381 103.651 52.2646 135 52.2577C138.917 52.2577 142.809 53.5789 146.502 53.7577C146.547 54.8557 146.502 54.7301 146.502 55.8377V55.8391Z" fill="white"/>
<path d="M172.812 102.669C172.717 101.826 171.733 101.192 170.883 101.192C168.134 101.192 165.694 99.5783 164.671 97.081C163.626 94.5239 164.3 91.5422 166.348 89.6633C166.993 89.0735 167.072 88.086 166.531 87.4004C165.124 85.6136 163.525 83.9994 161.779 82.6006C161.095 82.0526 160.091 82.1288 159.499 82.7851C157.71 84.7654 154.498 85.5013 152.016 84.4657C149.434 83.3793 147.804 80.7619 147.964 77.9525C148.017 77.0695 147.371 76.3022 146.491 76.1998C144.25 75.9403 141.989 75.9327 139.742 76.1821C138.873 76.2781 138.228 77.0272 138.257 77.8991C138.354 80.681 136.706 83.2521 134.149 84.2996C131.696 85.3015 128.507 84.5711 126.722 82.6081C126.132 81.9615 125.146 81.8821 124.458 82.4184C122.66 83.8292 121.025 85.4445 119.605 87.2167C119.051 87.9056 119.133 88.9041 119.784 89.496C121.872 91.3873 122.546 94.3947 121.461 96.9817C120.426 99.448 117.865 101.037 114.934 101.037C113.983 101.006 113.306 101.645 113.2 102.51C112.937 104.763 112.934 107.06 113.188 109.332C113.282 110.179 114.295 110.808 115.155 110.808C117.768 110.741 120.275 112.358 121.328 114.918C122.376 117.475 121.702 120.456 119.65 122.337C119.009 122.927 118.927 123.912 119.468 124.597C120.862 126.373 122.462 127.988 124.214 129.399C124.901 129.952 125.901 129.875 126.497 129.218C128.292 127.233 131.504 126.498 133.976 127.536C136.566 128.619 138.195 131.236 138.036 134.047C137.984 134.93 138.631 135.699 139.508 135.799C140.654 135.934 141.807 136 142.964 136C144.061 136 145.159 135.94 146.257 135.818C147.127 135.722 147.771 134.972 147.742 134.1C147.641 131.319 149.293 128.748 151.847 127.702C154.316 126.694 157.491 127.432 159.277 129.392C159.87 130.037 160.85 130.116 161.541 129.582C163.336 128.174 164.967 126.56 166.394 124.783C166.948 124.095 166.869 123.096 166.215 122.503C164.127 120.613 163.45 117.604 164.535 115.02C165.554 112.586 168.019 110.953 170.671 110.953L171.042 110.963C171.903 111.032 172.695 110.369 172.799 109.491C173.063 107.236 173.066 104.942 172.812 102.669ZM143 123.295C133.448 123.295 125.704 115.552 125.704 106C125.704 96.4484 133.448 88.7053 143 88.7053C152.552 88.7053 160.295 96.4484 160.295 106C160.295 109.243 159.401 112.275 157.849 114.868L150.276 107.295C150.824 106.002 151.114 104.601 151.113 103.154C151.113 100.322 150.01 97.6597 148.007 95.6573C146.005 93.6549 143.342 92.5521 140.511 92.5521C139.566 92.5521 138.625 92.6777 137.715 92.9255C137.316 93.0342 136.991 93.3627 136.884 93.7621C136.776 94.1705 136.898 94.589 137.217 94.9084C137.217 94.9084 140.956 98.6761 142.207 99.9267C142.338 100.058 142.338 100.37 142.32 100.483L142.308 100.565C142.182 101.941 141.939 103.591 141.738 104.226C141.711 104.253 141.686 104.275 141.658 104.303C141.629 104.331 141.603 104.359 141.575 104.388C140.932 104.594 139.256 104.84 137.859 104.965L137.859 104.958L137.796 104.973C137.785 104.975 137.765 104.976 137.737 104.976C137.586 104.976 137.364 104.934 137.162 104.732C135.86 103.43 132.268 99.8637 132.268 99.8637C131.945 99.5425 131.615 99.475 131.395 99.475C130.881 99.475 130.421 99.8461 130.276 100.378C129.288 104.038 130.336 107.974 133.013 110.651C135.016 112.654 137.679 113.757 140.511 113.757C141.957 113.757 143.359 113.467 144.651 112.919L152.307 120.575C149.619 122.294 146.427 123.295 143 123.295Z" fill="url(#paint4_linear_1168_24587)"/>
<defs>
<linearGradient id="paint0_linear_1168_24587" x1="69" y1="65" x2="25" y2="37" gradientUnits="userSpaceOnUse">
<stop stop-color="#9DB4CE"/>
<stop offset="1" stop-color="#E3E9EF"/>
</linearGradient>
<linearGradient id="paint1_linear_1168_24587" x1="232.397" y1="152.579" x2="259.001" y2="172.499" gradientUnits="userSpaceOnUse">
<stop stop-color="#9DB4CE"/>
<stop offset="1" stop-color="#E3E9EF"/>
</linearGradient>
<linearGradient id="paint2_linear_1168_24587" x1="286.14" y1="110.639" x2="195.418" y2="32.2494" gradientUnits="userSpaceOnUse">
<stop stop-color="#B4C4D6"/>
<stop offset="1" stop-color="white"/>
</linearGradient>
<linearGradient id="paint3_linear_1168_24587" x1="211.234" y1="135.041" x2="125.25" y2="29.2261" gradientUnits="userSpaceOnUse">
<stop stop-color="#99B0CB"/>
<stop offset="1" stop-color="#CBD8E7"/>
</linearGradient>
<linearGradient id="paint4_linear_1168_24587" x1="138.5" y1="76" x2="160.5" y2="132" gradientUnits="userSpaceOnUse">
<stop stop-color="white"/>
<stop offset="1" stop-color="#E1E7EF"/>
</linearGradient>
</defs>
</svg>
