<svg width="280" height="212" viewBox="0 0 280 212" fill="none" xmlns="http://www.w3.org/2000/svg">
<path d="M230 81C241.046 81 250 89.9543 250 101V108C250 119.046 241.046 128 230 128C227.791 128 226 129.791 226 132V134.5C226 138.09 228.91 141 232.5 141H244C255.046 141 264 149.954 264 161V168C264 179.046 255.046 188 244 188H50C38.9543 188 30 179.046 30 168V161C30 153.118 34.5592 146.302 41.1841 143.043C44.3395 141.491 47 138.623 47 135.106C47 131.182 43.8184 128 39.8937 128H36C24.9543 128 16 119.046 16 108V101C16 89.9543 24.9543 81 36 81H230Z" fill="#E1E7EF"/>
<rect x="65" y="30" width="169" height="34" rx="17" fill="#E1E7EF"/>
<path d="M90.4883 59.4087C90.4883 56.6473 92.7269 54.4087 95.4883 54.4087H183.511C186.825 54.4087 189.511 57.095 189.511 60.4087V168.5C189.511 171.814 186.825 174.5 183.511 174.5H96.4883C93.1746 174.5 90.4883 171.814 90.4883 168.5V59.4087Z" fill="url(#paint0_linear_1172_26344)"/>
<path d="M90.4892 58.2603C90.4892 56.0346 91.9603 54.077 94.0981 53.4577L146.25 38.3513C149.448 37.4249 152.641 39.8244 152.641 43.1539V160.76C152.641 163.369 150.635 165.539 148.034 165.744L90.4883 170.286L90.4892 58.2603Z" fill="url(#paint1_linear_1172_26344)"/>
<rect x="142.107" y="90.2251" width="5.26717" height="17.9084" fill="url(#paint2_linear_1172_26344)"/>
<path d="M195.91 90.5129C184.191 90.1045 164.557 87.505 154.083 83.8312C151.821 83.0377 149 84.6987 149 87.0961L149 133.859C149 136.58 152.906 138.537 155.425 137.51C166.391 133.034 185.808 131.235 195.915 130.921C197.571 130.87 198.902 132.213 198.902 133.87V140.894C198.902 143.471 201.936 144.849 203.876 143.153L238.43 112.959C239.792 111.768 239.798 109.651 238.443 108.452L203.889 77.9082C201.952 76.1964 198.902 77.5713 198.902 80.1559L198.902 87.5691C198.902 89.226 197.566 90.5706 195.91 90.5129Z" fill="url(#paint3_linear_1172_26344)"/>
<path d="M71 115.5L71.8829 125.426C72.2824 129.924 74.2427 134.167 77.4511 137.481L87.1479 147.5L77.4511 157.519C74.2427 160.833 72.2839 165.076 71.8829 169.574L71 179.5H113L112.117 169.574C111.718 165.076 109.757 160.833 106.55 157.519L96.8536 147.5L106.55 137.481C109.759 134.167 111.718 129.924 112.117 125.426L113 115.5H71Z" fill="url(#paint4_linear_1172_26344)"/>
<path d="M74.6066 126.362C74.8689 129.142 75.7994 131.865 77.3482 134.227C78.0589 135.326 78.9366 136.324 79.848 137.273C83.4262 141.017 87.0045 144.76 90.5827 148.502C86.6015 152.674 82.6071 156.833 78.6596 161.033C77.4464 162.453 76.4763 164.071 75.7789 165.791C75.2235 167.169 74.8469 168.617 74.6814 170.082C74.5671 171.078 74.4879 172.08 74.3956 173.08C74.2638 174.553 74.1333 176.027 74.0015 177.5H109C108.754 174.738 108.521 171.973 108.201 169.219C107.686 166.316 106.425 163.539 104.51 161.239C103.719 160.299 102.847 159.431 102.003 158.534C98.8089 155.189 95.6131 151.846 92.4187 148.501C96.4087 144.319 100.413 140.151 104.373 135.94C106.31 133.634 107.652 130.853 108.175 127.919C108.319 127.112 108.389 126.293 108.468 125.475C108.645 123.483 108.823 121.492 108.999 119.5H74C74.2007 121.785 74.403 124.071 74.6052 126.358L74.6066 126.362Z" fill="#E1E7EF"/>
<path d="M78.9646 135.5C79.2518 135.831 79.5449 136.158 79.8453 136.477C83.4237 140.295 87.0021 144.112 90.5805 147.929V162.212C86.1097 167.785 81.3224 171.829 74.3942 172.993C74.3942 172.993 74.1319 175.998 74 177.5H109C108.916 176.546 108.601 172.993 108.601 172.993C101.465 172.537 97.0867 167.202 92.418 162.212V147.929C96.2895 143.79 100.174 139.663 104.018 135.5C104.018 135.5 96.5958 136.239 91.4905 136.239C86.3852 136.239 78.9632 135.5 78.9632 135.5H78.9646Z" fill="url(#paint5_linear_1172_26344)"/>
<path d="M69.8221 111.5H114.178C114.396 111.5 114.604 111.578 114.759 111.716C114.914 111.856 115 112.043 115 112.24V114.76C115 114.956 114.914 115.144 114.759 115.284C114.604 115.423 114.396 115.5 114.178 115.5H69.8221C69.6037 115.5 69.3959 115.422 69.2412 115.284C69.0865 115.144 69 114.957 69 114.76V112.24C69 112.044 69.0865 111.856 69.2412 111.716C69.3959 111.577 69.6037 111.5 69.8221 111.5Z" fill="url(#paint6_linear_1172_26344)"/>
<path d="M69.8221 179.5H114.178C114.396 179.5 114.604 179.578 114.759 179.716C114.914 179.856 115 180.043 115 180.24V182.76C115 182.956 114.914 183.144 114.759 183.284C114.604 183.423 114.396 183.5 114.178 183.5H69.8221C69.6037 183.5 69.3959 183.422 69.2412 183.284C69.0865 183.144 69 182.957 69 182.76V180.24C69 180.044 69.0865 179.856 69.2412 179.716C69.3959 179.577 69.6037 179.5 69.8221 179.5Z" fill="url(#paint7_linear_1172_26344)"/>
<path d="M78.8656 120.5H79.1344C79.6139 120.5 80 121.107 80 121.86V130.14C80 130.893 79.6139 131.5 79.1344 131.5H78.8656C78.3861 131.5 78 130.893 78 130.14V121.86C78 121.107 78.3861 120.5 78.8656 120.5Z" fill="white"/>
<defs>
<linearGradient id="paint0_linear_1172_26344" x1="150.534" y1="147.065" x2="197.296" y2="141.586" gradientUnits="userSpaceOnUse">
<stop stop-color="#8DA4BE"/>
<stop offset="1" stop-color="#CBD8E7"/>
</linearGradient>
<linearGradient id="paint1_linear_1172_26344" x1="222.797" y1="275.467" x2="102.4" y2="240.888" gradientUnits="userSpaceOnUse">
<stop stop-color="#A7BBD2"/>
<stop offset="1" stop-color="white"/>
</linearGradient>
<linearGradient id="paint2_linear_1172_26344" x1="144.716" y1="101.369" x2="138.21" y2="96.7442" gradientUnits="userSpaceOnUse">
<stop stop-color="#9DB4CE"/>
<stop offset="1" stop-color="#E3E9EF"/>
</linearGradient>
<linearGradient id="paint3_linear_1172_26344" x1="154" y1="110.5" x2="221.495" y2="109.925" gradientUnits="userSpaceOnUse">
<stop stop-color="white" stop-opacity="0"/>
<stop offset="1" stop-color="#B7C6D9"/>
</linearGradient>
<linearGradient id="paint4_linear_1172_26344" x1="116.5" y1="198" x2="55.2445" y2="142.451" gradientUnits="userSpaceOnUse">
<stop stop-color="#99B0CB"/>
<stop offset="1" stop-color="#CBD8E7"/>
</linearGradient>
<linearGradient id="paint5_linear_1172_26344" x1="91.3338" y1="161.635" x2="94.6032" y2="137.998" gradientUnits="userSpaceOnUse">
<stop stop-color="#9DB4CE"/>
<stop offset="1" stop-color="#E3E9EF"/>
</linearGradient>
<linearGradient id="paint6_linear_1172_26344" x1="94.7047" y1="115.518" x2="92.8786" y2="109.528" gradientUnits="userSpaceOnUse">
<stop stop-color="#6C89AB"/>
<stop offset="1" stop-color="#889FBA"/>
</linearGradient>
<linearGradient id="paint7_linear_1172_26344" x1="94.7047" y1="183.518" x2="92.8786" y2="177.528" gradientUnits="userSpaceOnUse">
<stop stop-color="#6C89AB"/>
<stop offset="1" stop-color="#889FBA"/>
</linearGradient>
</defs>
</svg>
