<?xml version="1.0" encoding="UTF-8"?>
<svg id="_레이어_1" data-name="레이어_1" xmlns="http://www.w3.org/2000/svg" version="1.1" viewBox="0 0 323.05 110.02">
  <!-- Generator: Adobe Illustrator 29.8.4, SVG Export Plug-In . SVG Version: 2.1.1 Build 6)  -->
  <defs>
    <style>
      .st0 {
        opacity: 0;
      }

      .st0, .st1 {
        fill: #1d2b5a;
      }

      .st2 {
        fill: #c8007e;
      }

      .st3 {
        fill: #004e97;
      }

      .st4 {
        fill: #005495;
      }

      .st5 {
        fill: none;
      }

      .st6 {
        fill: #ef7a00;
      }

      .st7 {
        fill: #f6ac19;
      }

      .st8 {
        fill: #00998a;
      }
    </style>
  </defs>
  <g>
    <g>
      <path class="st1" d="M300.52,69.25l5.74-29.81h9.94l-5.83,29.81h-9.85Z"/>
      <path class="st1" d="M293.42,70.15c-3.85,0-5.96-2.74-6.32-8.22h-7.77c-.6,1.39-1.11,2.68-1.54,3.88l-1.18,3.43h-6.32l14.23-29.81h9.71l1.9,21.95c.3,3.16,1.05,5.21,2.26,6.14-.87,1.75-2.53,2.62-4.97,2.62ZM280.72,58.63h6.23l-.54-11.61v-1.22l-3.21,7.09-2.48,5.74Z"/>
    </g>
    <g>
      <path class="st1" d="M143.28,40.24v3.31h-5.04c0,6.91,2.83,12.87,6.84,16.62l-2.87,2.79c-2.61-2.35-5.15-5.41-6.77-9.42-1.58,4.41-4.12,8.02-6.84,10.67l-2.98-2.94c3.86-4.19,6.84-10,6.84-17.73h-5.04v-3.31h15.85ZM144.35,37.29h6.14v12.32h2.5v-10.11c0-1.47-1.07-1.1-1.07-1.84,0-.22.15-.37.37-.37h6.11v33.84h-5.41v-18.2h-2.5v18.2h-5.41v-31.63c0-1.47-1.1-1.1-1.1-1.84,0-.22.15-.37.37-.37Z"/>
      <path class="st1" d="M162,53.11h3.05v-10.67h-2.68v-3.31h19.82v3.31h-2.72v10.67h3.09v3.31h-20.56v-3.31ZM166.34,59.73h6.84v8.09c0,.44.29.74.7.74h18.02v3.31h-21.96c-1.8,0-2.91-1.1-2.91-2.94v-6.99c0-1.47-1.07-1.1-1.07-1.84,0-.22.15-.37.37-.37ZM174.07,53.11v-10.67h-3.6v10.67h3.6ZM183.99,37.66c0-.22.15-.37.37-.37h6.84v8.64h4.67v3.31h-4.67v14.16h-6.14v-23.91c0-1.47-1.07-1.1-1.07-1.84Z"/>
      <path class="st1" d="M217.13,40.24v3.31h-6.29c0,5.08,1.73,11.73,7.72,16.62l-3.38,2.91c-3.53-2.57-5.85-5.55-7.32-8.64-1.54,3.57-3.97,6.95-7.5,9.78l-3.42-2.94c5.63-5.04,7.76-11.66,7.76-17.73h-6.33v-3.31h18.76ZM220.37,37.29h6.84v33.84h-6.11v-31.63c0-1.47-1.1-1.1-1.1-1.84,0-.22.15-.37.37-.37Z"/>
      <path class="st1" d="M232.25,52.92h21.99v3.31h-8.09v5.33h-6.14v-5.33h-7.76v-3.31ZM233.54,44.65c0-3.86,3.75-6.25,9.53-6.25s9.56,2.39,9.56,6.25-3.79,6.25-9.56,6.25-9.53-2.39-9.53-6.25ZM237.29,63.04h6.88v4.78c0,.44.26.74.7.74h18.39v3.31h-22.36c-1.8,0-2.87-1.1-2.87-2.94v-3.68c0-1.47-1.07-1.1-1.07-1.84,0-.22.15-.37.33-.37ZM243.06,47.59c1.99,0,3.42-1.1,3.42-2.94s-1.43-2.94-3.42-2.94-3.42,1.1-3.42,2.94,1.43,2.94,3.42,2.94ZM249.57,58.26h6.84v-18.76c0-1.47-1.1-1.1-1.1-1.84,0-.22.15-.37.37-.37h6.84v27.58h-6.11v-3.31h-6.84v-3.31Z"/>
    </g>
  </g>
  <g>
    <rect class="st0" x="4.1" y="2.58" width="104" height="104"/>
    <g>
      <g>
        <g>
          <path class="st3" d="M70.01,62.29h-5.49c.75,2.56,6.26,4.16,9.37.22l-3.73-8.67h-.15v8.45Z"/>
          <path class="st3" d="M84.35,53.84h-.16v8.45h-5.48c.75,2.56,6.27,4.16,9.38.22l-3.74-8.67Z"/>
          <g>
            <path class="st5" d="M39.04,63.78l.2.32c-.06-.11-.13-.22-.2-.32h0Z"/>
            <path class="st3" d="M39.24,64.1l-.2-.32h0s-.05-.09-.07-.13c-.99,2.17-1.78,4.38-2.34,6.57-.76,9.49-.7,18.91-.54,29.21.05,2.79-.46,2.96-1.36,3.5-.91.55-4.6,2.03-4.69,2.31-.11.27.03.84.47.91h8.7c.94-5.5,2.12-13.11,2.12-13.11,1.46,3.85,4.46,10.04,6.99,13.07h4.61c10.86,0,20.95-2.23,27.66-7.33-7.56-4.86-13.49-11.7-17.83-18.88-9.49-1.37-18.14-7.29-23.51-15.79Z"/>
            <path class="st7" d="M38.97,63.64c.94-2.08,2.07-4.14,3.37-6.13-1.11-3.09-1.65-6-1.95-8.31-.07.04-.14.08-.2.11-.74.46-2.02,2.42-2.46,3.46l-.59-4.78-3.3.41c.04.44.09.88.16,1.33.7,5.08,2.46,9.79,4.98,13.92Z"/>
            <path class="st6" d="M42.38,57.64s-.02-.08-.04-.13c-1.29,1.99-2.43,4.05-3.37,6.13.02.04.05.09.07.13.07.11.13.22.2.32,5.36,8.51,14.02,14.42,23.51,15.79-.78-1.29-1.51-2.59-2.19-3.9-.03-.06-.06-.12-.1-.19-10.74-4.22-15.71-11.59-18.09-18.16Z"/>
            <path class="st8" d="M53.87,44.97c-1.39.28-2.9.6-3.56.78l-.54-2.37c.81-.21,1.97-.81,1.97-.81,0,0,.71-1.87.93-3.58.46-3.62-.62-5.81-.62-5.81-3.42-.29-6.52,1.44-8.15,3.58.14,3.37,2.12,5.41,2.12,5.41l-.91,4.93c-1.34.49-3.72,1.54-4.69,2.07-.02,0-.03.01-.04.02.3,2.31.85,5.22,1.95,8.31,3.03-4.67,6.96-8.99,11.54-12.54Z"/>
            <path class="st3" d="M79.51,61.47l4.89-10.81v-.43h-7.2s-.58-9.87-.74-13.77l4.26-2.92v-.18c-.05,0-.1,0-.15,0-3.61-.16-8.99,1.26-13.35,3.35-4.38,1.97-9.54,5.08-13.34,8.24,0,0,0,0-.01,0-4.58,3.55-8.51,7.88-11.54,12.54.02.05.03.09.04.13,2.38,6.57,7.35,13.95,18.09,18.16-4.3-8.35-6.48-16.74-6.57-22.66.54-1.07,5.99-4.65,5.99-4.65,4.75-6.57,11.83-11.88,11.83-11.88.65-.35,2.74-.27,3.91-.21-.17,3.87-.86,13.82-.86,13.82h-7.24v.49l-2.88,10.75h.5l4.59-10.22c3.89.92,8.42.77,11.97.11l-2.7,10.11h.5Z"/>
          </g>
        </g>
        <path class="st2" d="M36.63,70.21c.57-2.19,1.35-4.4,2.34-6.57-2.52-4.13-4.28-8.84-4.98-13.92-.06-.45-.12-.89-.16-1.33l-6.31.79c-.74.09-1.43.49-1.73.89-.26.34-.54.95-.47,1.69l1.78,14.38,8.9-1.11.63,5.11v.07Z"/>
      </g>
      <g>
        <path class="st3" d="M44.14,7.93l.07.26h.04c.16.04.29.07.4.45l1.66,5.91,1.57-.44-1.88-6.69-1.86.52Z"/>
        <path class="st3" d="M36.86,10.14l.07.26h.11c.15.01.24.13.33.44,0,0,.74,2.65.96,3.41.2.73.71.97,1.39.78.66-.18,4.25-1.2,4.25-1.2l-1.48-5.28-5.63,1.59ZM39.91,13.83s-.87-3.12-.88-3.16c.04-.01,2.15-.61,2.19-.62,0,.04.87,3.12.89,3.16-.04.01-2.16.6-2.2.62Z"/>
        <path class="st3" d="M40.17,16.2l.07.26h.04c.15.04.29.07.39.45,0,0,.35,1.2.62,2.18.2.73.7.96,1.41.77.42-.12,6.43-1.81,6.43-1.81l-.3-1.07s-5.92,1.66-5.95,1.67c-.01-.04-.84-2.97-.84-2.97l-1.87.52Z"/>
      </g>
      <g>
        <path class="st3" d="M20.21,30.64l.2.18h.04c.15-.07.28-.11.57.15,0,0,1,.93,1.66,1.54.65.59,1.2.35,1.6-.08.39-.42,4.54-4.91,4.54-4.91l-.82-.75s-4.17,4.51-4.2,4.54c-.03-.03-2.27-2.1-2.27-2.1l-1.32,1.42Z"/>
        <g>
          <path class="st3" d="M19.3,21.49l.2.18h.04c.15-.07.28-.11.57.16l4.5,4.17,1.11-1.2s-2.68-2.48-2.71-2.51c.03-.03.84-.9.84-.9l-.84-.78s-.81.88-.84.91c-.03-.03-1.55-1.44-1.55-1.44l-1.32,1.42Z"/>
          <path class="st3" d="M15.76,24.95s.55.51.58.54c-.03.03-1.65,1.78-1.65,1.78l.84.77s.57-.61.62-.67c.08.59.33,1.07.78,1.49.53.49,1.18.71,1.94.64.76-.07,1.42-.39,1.96-.98.55-.59.83-1.28.84-2.03.02-.76-.25-1.39-.78-1.88-.45-.41-.95-.63-1.54-.67.05-.05.62-.66.62-.66l-.84-.78-1.63,1.76s-.58-.54-.58-.54l-1.16,1.25ZM20.01,27.73c-.48.51-1.36.47-1.96-.09-.62-.57-.72-1.45-.25-1.96.48-.51,1.36-.47,1.97.1.61.56.71,1.44.24,1.95Z"/>
        </g>
      </g>
      <path class="st3" d="M5.64,45.36l.26.06.03-.03c.1-.12.19-.23.57-.15,0,0,2.29.5,2.33.51,0,.04-.24,1.07-.25,1.12-.04,0-3.12-.68-3.12-.68l-.39,1.79.26.06.03-.03c.1-.13.19-.23.58-.14l5.19,1.12c.12.17.14.42.07.77,0,0-.61,2.82-.62,2.86-.04,0-4.71-1.02-4.75-1.03.01-.04.6-2.73.6-2.73l-1.09-.24-1,4.63.27.06.03-.03c.1-.12.19-.23.57-.15,0,0,4.28.93,5.02,1.09.74.16,1.18-.14,1.34-.87.16-.73.72-3.33.72-3.33.05-.24.06-.48.01-.73,0,0,0-.02,0-.05.05.01,3.7.8,3.7.8l.32-1.5s-6.56-1.43-6.6-1.43c.01-.04.23-1.08.24-1.12.04.01,6.6,1.43,6.6,1.43l.33-1.49-10.84-2.36-.39,1.79Z"/>
      <g>
        <path class="st4" d="M66.27,7.57l-.32,1.09s5.95,1.77,5.99,1.79c-.01.04-.78,2.6-.78,2.6l1.6.48,1.1-3.69-7.59-2.26Z"/>
        <polygon class="st4" points="64.36 11.62 64.03 12.71 67.59 13.77 67.18 15.15 64.11 14.23 63.78 15.32 70.26 17.25 69.37 20.22 70.97 20.7 72.18 16.64 68.78 15.62 69.19 14.25 73.3 15.48 73.63 14.39 64.36 11.62"/>
      </g>
      <g>
        <path class="st3" d="M91.69,29.48l-.96.83-2.58-2.98.96-.83-1.21-1.39-.19.17v.04c.04.15.07.28-.21.52,0,0-1.49,1.3-2.09,1.82-.6.52-.51,1.04-.09,1.52.41.48,3.93,4.53,3.93,4.53l3.49-3.02-1.03-1.19ZM86.42,28.83l.94-.81,2.58,2.98-.94.81-2.59-2.98Z"/>
        <g>
          <path class="st3" d="M96.01,25.38l-.19.17v.04c.04.15.07.28-.21.52l-.8.69-.84-.97-.79.69.84.97-1.8,1.56,1.02,1.18,3.98-3.45-1.21-1.4Z"/>
          <path class="st3" d="M94.95,24.42l-1.02-1.18-1.06.92-1.73-1.99,1.06-.92-1.21-1.39-.19.17v.04c.04.15.07.28-.21.52,0,0-1.66,1.44-2.35,2.04-.61.53-.5,1.06-.1,1.52.34.39,3.06,3.53,3.06,3.53l3.75-3.25ZM90.98,25.8l-1.73-1.99,1.09-.95,1.73,2-1.09.95Z"/>
        </g>
      </g>
      <path class="st3" d="M102.65,45.33h0c.32-.67.79-1.07,1.41-1.2.65-.13,1.23.04,1.79.54.56.49.93,1.16,1.1,1.99.17.84.1,1.6-.22,2.27-.32.68-.79,1.07-1.44,1.2-.62.13-1.21-.06-1.76-.55-.56-.49-.93-1.17-1.1-2-.17-.83-.09-1.59.23-2.26ZM102.59,45.3h0ZM106.01,46.86c-.08-.4-.3-.74-.62-.96-.3-.21-.65-.28-.99-.21-.73.15-1.19.92-1.03,1.71.08.4.3.73.62.95.3.21.65.28.99.21.34-.07.64-.28.84-.59.21-.33.28-.72.19-1.12ZM99.46,48.17c-.06.01-2.52.52-2.52.52,0,0,1.2,5.87,1.22,5.94-.06.01-.98.2-1.04.21-.01-.07-1.31-6.39-1.31-6.39-.15-.73.13-1.16.85-1.31,0,0,1.72-.35,1.72-.35.4-.08.44-.23.49-.39,0,0,0-.01,0-.02.03,0,.17-.04.21-.05.01.06.37,1.78.38,1.84ZM102.85,51.37c-.06.01-.98.2-1.04.21-.01-.06-.65-3.15-.65-3.15,0,0-1.21.25-1.27.26-.01-.06-.26-1.28-.27-1.34.06-.01,1.27-.26,1.27-.26,0,0-.51-2.49-.52-2.55.06-.01.98-.2,1.04-.21.01.06,1.43,6.98,1.44,7.04ZM107.99,52.45c-.06.01-8.41,1.72-8.47,1.74-.01-.06-.3-1.48-.32-1.54.06-.01,1.16-.24,1.16-.24,0,0-.36-1.73-.37-1.8.06-.01.9-.19.96-.2.01.06.37,1.8.37,1.8l5.58-1.14c.41-.09.45-.23.49-.39,0,0,0-.01,0-.02.03,0,.17-.04.21-.04.01.06.37,1.78.38,1.84Z"/>
    </g>
  </g>
</svg>