<svg width="40" height="40" viewBox="0 0 40 40" fill="none" xmlns="http://www.w3.org/2000/svg">
<rect width="40" height="40" rx="8" fill="#ECF9F1"/>
<path d="M31.5312 18.0542C31.5312 11.9737 26.602 7.04443 20.5215 7.04443C14.441 7.04443 9.5117 11.9737 9.5117 18.0542C9.5117 24.1347 14.4409 29.064 20.5215 29.064H31.5312V18.0542Z" fill="#41E7AD"/>
<g filter="url(#filter0_d_879_29136)">
<path d="M8.04297 23.9261C8.04297 19.4671 11.6577 15.8523 16.1168 15.8523C20.5759 15.8523 24.1906 19.4671 24.1906 23.9261C24.1906 28.3852 20.5759 32 16.1168 32H8.04297V23.9261Z" fill="#19B57F"/>
<path d="M16.0298 23.4938V23.9033C16.0298 24.0333 16.0546 24.1425 16.1036 24.2275C16.1712 24.3448 16.2821 24.412 16.4081 24.412C16.5315 24.412 16.6542 24.3491 16.7726 24.2252L18.0655 22.8727C18.3493 22.5757 18.3493 22.0925 18.0655 21.7955L16.7726 20.4429C16.6542 20.3189 16.5315 20.2561 16.4081 20.2561C16.2198 20.2561 16.0298 20.4134 16.0298 20.7649V21.1368C14.1943 21.2502 12.6748 22.7239 12.449 24.6533C12.4363 24.7611 12.4949 24.8642 12.5914 24.9042C12.6187 24.9155 12.6472 24.921 12.6753 24.921C12.7464 24.921 12.8155 24.8861 12.8594 24.8233C13.4651 23.9574 14.4377 23.4404 15.461 23.4404C15.6506 23.4404 15.8412 23.4583 16.0298 23.4938Z" fill="white"/>
<path d="M19.3011 24.3554C19.2046 24.3154 19.0945 24.3487 19.0331 24.4364C18.4275 25.3022 17.4549 25.8192 16.4316 25.8192C16.242 25.8192 16.0514 25.8013 15.8629 25.7658V25.3563C15.8629 25.0049 15.6728 24.8476 15.4845 24.8476C15.3611 24.8476 15.2384 24.9105 15.1199 25.0344L13.8271 26.387C13.5433 26.6839 13.5433 27.1671 13.8272 27.4642L15.1199 28.8167C15.2384 28.9407 15.3611 29.0035 15.4845 29.0035C15.6728 29.0035 15.8629 28.8462 15.8629 28.4947V28.1228C17.6984 28.0094 19.2178 26.5357 19.4436 24.6063C19.4563 24.4985 19.3977 24.3954 19.3011 24.3554Z" fill="white"/>
</g>
<defs>
<filter id="filter0_d_879_29136" x="6.04297" y="14.8523" width="20.1475" height="20.1477" filterUnits="userSpaceOnUse" color-interpolation-filters="sRGB">
<feFlood flood-opacity="0" result="BackgroundImageFix"/>
<feColorMatrix in="SourceAlpha" type="matrix" values="0 0 0 0 0 0 0 0 0 0 0 0 0 0 0 0 0 0 127 0" result="hardAlpha"/>
<feOffset dy="1"/>
<feGaussianBlur stdDeviation="1"/>
<feComposite in2="hardAlpha" operator="out"/>
<feColorMatrix type="matrix" values="0 0 0 0 0.968627 0 0 0 0 0.588235 0 0 0 0 0.729412 0 0 0 0.2 0"/>
<feBlend mode="normal" in2="BackgroundImageFix" result="effect1_dropShadow_879_29136"/>
<feBlend mode="normal" in="SourceGraphic" in2="effect1_dropShadow_879_29136" result="shape"/>
</filter>
</defs>
</svg>
