<svg width="40" height="40" viewBox="0 0 40 40" fill="none" xmlns="http://www.w3.org/2000/svg">
<rect width="40" height="40" rx="8" fill="#FDEDF3"/>
<path d="M7.37793 14.6072C7.37784 13.1131 8.21073 11.7431 9.53711 11.0554L16.4346 7.47925C17.589 6.88081 18.9628 6.88072 20.1172 7.47925L27.0146 11.0564C28.3407 11.744 29.1737 13.1134 29.1738 14.6072L29.1738 23.3054C29.1739 24.808 28.3322 26.1843 26.9941 26.8679L20.0967 30.3914C18.9538 30.9753 17.6 30.9752 16.457 30.3914L9.55859 26.8679C8.22065 26.1843 7.37901 24.8079 7.37891 23.3054L7.37793 14.6072Z" fill="#F88BB3"/>
<path d="M17.8472 14.0079C18.0096 13.7455 18.3953 13.758 18.5404 14.0303L19.5171 15.864C19.9547 16.6855 20.6651 17.3287 21.526 17.6827L23.5841 18.5293C23.915 18.6653 23.9145 19.134 23.5834 19.2694L21.4916 20.1248C20.6124 20.4843 19.8898 21.145 19.4532 21.9886L18.5375 23.7578C18.3947 24.0337 18.0056 24.0486 17.8421 23.7844L16.5686 21.7264C16.1474 21.0457 15.5316 20.507 14.8008 20.18L12.7565 19.2654C12.441 19.1242 12.441 18.6763 12.7565 18.5351L14.8008 17.6205C15.5316 17.2936 16.1474 16.7549 16.5686 16.0741L17.8472 14.0079Z" fill="white"/>
<g filter="url(#filter0_d_879_29116)">
<rect x="17.8213" y="25.1292" width="11.105" height="11.105" rx="3" transform="rotate(-45 17.8213 25.1292)" fill="#D10751" fill-opacity="0.8" shape-rendering="crispEdges"/>
</g>
<path fill-rule="evenodd" clip-rule="evenodd" d="M25.6725 25.8401C25.2797 25.8401 24.9612 25.4989 24.9612 25.078L24.9612 22.3345C24.9612 21.9136 25.2797 21.5724 25.6725 21.5724C26.0653 21.5724 26.3838 21.9136 26.3838 22.3345L26.3838 25.078C26.3838 25.4989 26.0653 25.8401 25.6725 25.8401Z" fill="white"/>
<path fill-rule="evenodd" clip-rule="evenodd" d="M26.2998 27.929C26.2998 28.2969 26.0015 28.5952 25.6336 28.5952L25.6276 28.5952C25.2596 28.5952 24.9613 28.2969 24.9613 27.929C24.9613 27.561 25.2596 27.2627 25.6276 27.2627L25.6336 27.2627C26.0015 27.2627 26.2998 27.561 26.2998 27.929Z" fill="white"/>
<defs>
<filter id="filter0_d_879_29116" x="17.0635" y="18.5193" width="17.2197" height="17.2197" filterUnits="userSpaceOnUse" color-interpolation-filters="sRGB">
<feFlood flood-opacity="0" result="BackgroundImageFix"/>
<feColorMatrix in="SourceAlpha" type="matrix" values="0 0 0 0 0 0 0 0 0 0 0 0 0 0 0 0 0 0 127 0" result="hardAlpha"/>
<feOffset dy="2"/>
<feGaussianBlur stdDeviation="1"/>
<feComposite in2="hardAlpha" operator="out"/>
<feColorMatrix type="matrix" values="0 0 0 0 0.819608 0 0 0 0 0.027451 0 0 0 0 0.317647 0 0 0 0.2 0"/>
<feBlend mode="normal" in2="BackgroundImageFix" result="effect1_dropShadow_879_29116"/>
<feBlend mode="normal" in="SourceGraphic" in2="effect1_dropShadow_879_29116" result="shape"/>
</filter>
</defs>
</svg>
