<svg width="40" height="40" viewBox="0 0 40 40" fill="none" xmlns="http://www.w3.org/2000/svg">
<rect width="40" height="40" rx="8" fill="#F4EFFA"/>
<g filter="url(#filter0_d_879_28582)">
<path d="M17.1338 12.252C17.1338 11.5112 17.5436 10.831 18.1982 10.4844L24.1309 7.34277C24.7161 7.033 25.4167 7.03301 26.002 7.34277L31.9346 10.4844C32.5891 10.831 32.999 11.5113 32.999 12.252L32.999 19.9307C32.9991 20.6758 32.5854 21.3594 31.9248 21.7041L25.9922 24.7998C25.4124 25.1023 24.7213 25.1023 24.1416 24.7998L18.209 21.7041C17.5486 21.3594 17.1348 20.6756 17.1348 19.9307L17.1338 12.252Z" fill="#A780E1" fill-opacity="0.9" shape-rendering="crispEdges"/>
</g>
<g filter="url(#filter1_d_879_28582)">
<path d="M6.1123 15.0916C6.11225 14.3508 6.5221 13.6707 7.17676 13.324L15.9336 8.68628C16.5188 8.37656 17.2195 8.37656 17.8047 8.68628L26.5615 13.324C27.2161 13.6706 27.6259 14.3509 27.626 15.0916L27.627 26.365C27.6268 27.1099 27.2122 27.7928 26.5518 28.1375L17.7949 32.7078C17.2152 33.0101 16.524 33.0102 15.9443 32.7078L7.1875 28.1375C6.52733 27.7927 6.11343 27.1098 6.11328 26.365L6.1123 15.0916Z" fill="#5917B8"/>
</g>
<path d="M16.1475 15.3647C16.1477 14.9817 16.5613 14.7412 16.8945 14.9302L20.8926 17.1978C21.2304 17.3893 21.2304 17.8753 20.8926 18.0669L16.8945 20.3345C16.5612 20.5235 16.1475 20.283 16.1475 19.8999V18.5337H12.0547C11.7786 18.5336 11.5547 18.3098 11.5547 18.0337V17.229C11.5547 16.9529 11.7786 16.7291 12.0547 16.729H16.1475V15.3647Z" fill="white"/>
<path d="M16.3223 21.4297C16.6555 21.2409 17.0684 21.4821 17.0684 21.8652V23.2295H21.1621C21.4381 23.2296 21.6621 23.4535 21.6621 23.7295V24.5342C21.6621 24.8102 21.4381 25.034 21.1621 25.0342H17.0684V26.3994C17.0684 26.7825 16.6556 27.0238 16.3223 26.835L12.3242 24.5674C11.9864 24.3758 11.9864 23.8888 12.3242 23.6973L16.3223 21.4297Z" fill="white"/>
<defs>
<filter id="filter0_d_879_28582" x="15.1338" y="6.11035" width="19.8652" height="21.9163" filterUnits="userSpaceOnUse" color-interpolation-filters="sRGB">
<feFlood flood-opacity="0" result="BackgroundImageFix"/>
<feColorMatrix in="SourceAlpha" type="matrix" values="0 0 0 0 0 0 0 0 0 0 0 0 0 0 0 0 0 0 127 0" result="hardAlpha"/>
<feOffset dy="1"/>
<feGaussianBlur stdDeviation="1"/>
<feComposite in2="hardAlpha" operator="out"/>
<feColorMatrix type="matrix" values="0 0 0 0 0.34902 0 0 0 0 0.0901961 0 0 0 0 0.717647 0 0 0 0.2 0"/>
<feBlend mode="normal" in2="BackgroundImageFix" result="effect1_dropShadow_879_28582"/>
<feBlend mode="normal" in="SourceGraphic" in2="effect1_dropShadow_879_28582" result="shape"/>
</filter>
<filter id="filter1_d_879_28582" x="4.1123" y="7.4541" width="25.5146" height="28.4805" filterUnits="userSpaceOnUse" color-interpolation-filters="sRGB">
<feFlood flood-opacity="0" result="BackgroundImageFix"/>
<feColorMatrix in="SourceAlpha" type="matrix" values="0 0 0 0 0 0 0 0 0 0 0 0 0 0 0 0 0 0 127 0" result="hardAlpha"/>
<feOffset dy="1"/>
<feGaussianBlur stdDeviation="1"/>
<feComposite in2="hardAlpha" operator="out"/>
<feColorMatrix type="matrix" values="0 0 0 0 0.34902 0 0 0 0 0.0901961 0 0 0 0 0.717647 0 0 0 0.2 0"/>
<feBlend mode="normal" in2="BackgroundImageFix" result="effect1_dropShadow_879_28582"/>
<feBlend mode="normal" in="SourceGraphic" in2="effect1_dropShadow_879_28582" result="shape"/>
</filter>
</defs>
</svg>
