<svg width="40" height="40" viewBox="0 0 40 40" fill="none" xmlns="http://www.w3.org/2000/svg">
<rect width="40" height="40" rx="8" fill="#F0F3FF"/>
<path d="M14.5195 12.0942C14.5195 9.8851 16.3104 8.09424 18.5195 8.09424H27.9995C30.2087 8.09424 31.9995 9.8851 31.9995 12.0942V24.7624C31.9995 26.3255 30.2869 27.2844 28.9543 26.4675L24.3048 23.6173C23.6634 23.2242 22.8557 23.2242 22.2143 23.6173L17.5648 26.4675C16.2321 27.2844 14.5195 26.3255 14.5195 24.7624V12.0942Z" fill="#7DABFF" fill-opacity="0.9"/>
<g filter="url(#filter0_d_879_29006)">
<path d="M9 13.8545C9 12.1976 10.3431 10.8545 12 10.8545H24.6704C26.3273 10.8545 27.6704 12.1976 27.6704 13.8545V29.6189C27.6704 31.1964 25.9295 32.153 24.598 31.3071L19.9439 28.3504C18.9621 27.7267 17.7083 27.7267 16.7265 28.3504L12.0725 31.3071C10.7409 32.153 9 31.1964 9 29.6189V13.8545Z" fill="#3157EC"/>
</g>
<path d="M17.8651 15.8927C18.024 15.4522 18.647 15.4522 18.8059 15.8927L19.5702 18.0123C19.6397 18.2051 19.8198 18.3359 20.0246 18.3425L22.2766 18.4144C22.7447 18.4293 22.9372 19.0219 22.5673 19.3091L20.7877 20.691C20.6258 20.8166 20.557 21.0283 20.6141 21.2251L21.2416 23.3892C21.372 23.839 20.868 24.2051 20.4806 23.9421L18.6163 22.6766C18.4468 22.5615 18.2242 22.5615 18.0547 22.6766L16.1904 23.9421C15.803 24.2051 15.299 23.839 15.4294 23.3892L16.0569 21.2251C16.114 21.0283 16.0452 20.8166 15.8833 20.691L14.1037 19.3091C13.7338 19.0219 13.9263 18.4293 14.3944 18.4144L16.6464 18.3425C16.8512 18.3359 17.0313 18.2051 17.1008 18.0123L17.8651 15.8927Z" fill="white"/>
<defs>
<filter id="filter0_d_879_29006" x="7" y="9.85449" width="22.6709" height="24.7676" filterUnits="userSpaceOnUse" color-interpolation-filters="sRGB">
<feFlood flood-opacity="0" result="BackgroundImageFix"/>
<feColorMatrix in="SourceAlpha" type="matrix" values="0 0 0 0 0 0 0 0 0 0 0 0 0 0 0 0 0 0 127 0" result="hardAlpha"/>
<feOffset dy="1"/>
<feGaussianBlur stdDeviation="1"/>
<feComposite in2="hardAlpha" operator="out"/>
<feColorMatrix type="matrix" values="0 0 0 0 0.192157 0 0 0 0 0.341176 0 0 0 0 0.92549 0 0 0 0.25 0"/>
<feBlend mode="normal" in2="BackgroundImageFix" result="effect1_dropShadow_879_29006"/>
<feBlend mode="normal" in="SourceGraphic" in2="effect1_dropShadow_879_29006" result="shape"/>
</filter>
</defs>
</svg>
