<svg width="72" height="120" viewBox="0 0 72 120" fill="none" xmlns="http://www.w3.org/2000/svg">
<path d="M12 99C19.4115 99 21 100.589 21 108C21 115.411 19.4115 117 12 117C4.5885 117 3 115.411 3 108C3 100.589 4.5885 99 12 99ZM11.3154 109.337C11.3148 108.957 10.9062 108.715 10.5732 108.899L8.64355 109.969C8.30015 110.159 8.30036 110.653 8.64355 110.844L10.5732 111.912C10.9062 112.096 11.3148 111.856 11.3154 111.476V110.951H14.9131C15.2441 110.951 15.5125 110.682 15.5127 110.351C15.5124 110.02 15.2441 109.751 14.9131 109.751H11.3154V109.337ZM13.1914 104.4C12.8582 104.216 12.4493 104.457 12.4492 104.838V105.252H8.84961C8.51842 105.252 8.25 105.52 8.25 105.852C8.25039 106.182 8.51866 106.451 8.84961 106.451H12.4492V106.977C12.45 107.357 12.8585 107.597 13.1914 107.413L15.1211 106.345C15.4643 106.154 15.4639 105.66 15.1211 105.47L13.1914 104.4Z" fill="#464C53"/>
<path d="M36 99C43.4115 99 45 100.589 45 108C45 115.411 43.4115 117 36 117C28.5885 117 27 115.411 27 108C27 100.589 28.5885 99 36 99ZM35.3154 109.338C35.3154 108.957 34.9065 108.716 34.5732 108.9L32.6436 109.97C32.3003 110.16 32.3001 110.654 32.6436 110.845L34.5732 111.913C34.9061 112.097 35.3146 111.857 35.3154 111.477V110.951H38.9131C39.244 110.951 39.5123 110.682 39.5127 110.352C39.5127 110.02 39.2442 109.751 38.9131 109.751H35.3154V109.338ZM37.1914 104.4C36.8582 104.216 36.4493 104.457 36.4492 104.838V105.252H32.8496C32.5184 105.252 32.25 105.52 32.25 105.852C32.2504 106.182 32.5187 106.451 32.8496 106.451H36.4492V106.977C36.45 107.357 36.8585 107.597 37.1914 107.413L39.1211 106.345C39.4643 106.154 39.4639 105.66 39.1211 105.47L37.1914 104.4Z" fill="white"/>
<path d="M60 99C67.4115 99 69 100.589 69 108C69 115.411 67.4115 117 60 117C52.5885 117 51 115.411 51 108C51 100.589 52.5885 99 60 99ZM59.3154 109.337C59.3149 108.956 58.9062 108.715 58.5732 108.899L56.6436 109.969C56.3001 110.159 56.3002 110.653 56.6436 110.844L58.5732 111.912C58.9062 112.096 59.3148 111.856 59.3154 111.476V110.951H62.9131C63.2442 110.951 63.5125 110.682 63.5127 110.351C63.5124 110.02 63.2441 109.751 62.9131 109.751H59.3154V109.337ZM61.1914 104.4C60.8582 104.216 60.4493 104.457 60.4492 104.838V105.252H56.8496C56.5184 105.252 56.25 105.52 56.25 105.852C56.2504 106.182 56.5187 106.451 56.8496 106.451H60.4492V106.977C60.45 107.357 60.8585 107.597 61.1914 107.413L63.1211 106.345C63.4643 106.154 63.4639 105.66 63.1211 105.47L61.1914 104.4Z" fill="#1D56BC"/>
<path fill-rule="evenodd" clip-rule="evenodd" d="M12 93C4.5885 93 3 91.4115 3 84C3 76.5885 4.5885 75 12 75C19.4115 75 21 76.5885 21 84C21 91.4115 19.4115 93 12 93ZM8.24999 84C8.6642 84 8.99998 84.3358 8.99998 84.75V87.75C8.99998 88.1642 8.6642 88.5 8.24999 88.5C7.83578 88.5 7.5 88.1642 7.5 87.75V84.75C7.5 84.3358 7.83578 84 8.24999 84ZM12.75 80.25C12.75 79.8358 12.4142 79.5 12 79.5C11.5858 79.5 11.25 79.8358 11.25 80.25V87.75C11.25 88.1642 11.5858 88.5 12 88.5C12.4142 88.5 12.75 88.1642 12.75 87.75V80.25ZM15.75 82.5C16.1642 82.5 16.5 82.8358 16.5 83.25V87.75C16.5 88.1642 16.1642 88.5 15.75 88.5C15.3358 88.5 15 88.1642 15 87.75V83.25C15 82.8358 15.3358 82.5 15.75 82.5Z" fill="#464C53"/>
<path fill-rule="evenodd" clip-rule="evenodd" d="M36 93C28.5885 93 27 91.4115 27 84C27 76.5885 28.5885 75 36 75C43.4115 75 45 76.5885 45 84C45 91.4115 43.4115 93 36 93ZM32.25 84C32.6642 84 33 84.3358 33 84.75V87.75C33 88.1642 32.6642 88.5 32.25 88.5C31.8358 88.5 31.5 88.1642 31.5 87.75V84.75C31.5 84.3358 31.8358 84 32.25 84ZM36.75 80.25C36.75 79.8358 36.4142 79.5 36 79.5C35.5858 79.5 35.25 79.8358 35.25 80.25V87.75C35.25 88.1642 35.5858 88.5 36 88.5C36.4142 88.5 36.75 88.1642 36.75 87.75V80.25ZM39.75 82.5C40.1642 82.5 40.5 82.8358 40.5 83.25V87.75C40.5 88.1642 40.1642 88.5 39.75 88.5C39.3358 88.5 39 88.1642 39 87.75V83.25C39 82.8358 39.3358 82.5 39.75 82.5Z" fill="white"/>
<path fill-rule="evenodd" clip-rule="evenodd" d="M60 93C52.5885 93 51 91.4115 51 84C51 76.5885 52.5885 75 60 75C67.4115 75 69 76.5885 69 84C69 91.4115 67.4115 93 60 93ZM56.25 84C56.6642 84 57 84.3358 57 84.75V87.75C57 88.1642 56.6642 88.5 56.25 88.5C55.8358 88.5 55.5 88.1642 55.5 87.75V84.75C55.5 84.3358 55.8358 84 56.25 84ZM60.75 80.25C60.75 79.8358 60.4142 79.5 60 79.5C59.5858 79.5 59.25 79.8358 59.25 80.25V87.75C59.25 88.1642 59.5858 88.5 60 88.5C60.4142 88.5 60.75 88.1642 60.75 87.75V80.25ZM63.75 82.5C64.1642 82.5 64.5 82.8358 64.5 83.25V87.75C64.5 88.1642 64.1642 88.5 63.75 88.5C63.3358 88.5 63 88.1642 63 87.75V83.25C63 82.8358 63.3358 82.5 63.75 82.5Z" fill="#1D56BC"/>
<path d="M13.0596 51C13.6528 51 14.1338 51.4809 14.1338 52.0742V52.1182C14.134 52.5668 14.4312 52.956 14.8457 53.1279C15.2604 53.2999 15.7469 53.2353 16.0645 52.918L16.0957 52.8867C16.5151 52.4675 17.1948 52.4676 17.6143 52.8867L19.1133 54.3857C19.5324 54.8052 19.5325 55.4849 19.1133 55.9043L19.082 55.9355C18.8219 56.196 18.7348 56.5691 18.8057 56.9238L19.4951 57.7852C19.616 57.8351 19.7455 57.8662 19.8818 57.8662H19.9258C20.5191 57.8662 21 58.3472 21 58.9404V61.0596C21 61.6529 20.5191 62.1338 19.9258 62.1338H19.8818C19.4363 62.134 19.0497 62.4271 18.876 62.8369V63.7598C18.9256 63.8708 18.9925 63.9749 19.082 64.0645L19.1133 64.0957C19.5325 64.5151 19.5324 65.1948 19.1133 65.6143L17.6143 67.1133C17.1948 67.5324 16.5151 67.5325 16.0957 67.1133L16.0645 67.082C15.7469 66.7647 15.2604 66.7001 14.8457 66.8721C14.4312 67.044 14.134 67.4331 14.1338 67.8818V67.9258C14.1338 68.5191 13.6528 69 13.0596 69H10.9404C10.3472 69 9.86621 68.5191 9.86621 67.9258V67.8818C9.86601 67.4332 9.56874 67.044 9.1543 66.8721C8.73957 66.7001 8.25311 66.7647 7.93555 67.082L7.9043 67.1133C7.48488 67.5325 6.8052 67.5324 6.38574 67.1133L4.88672 65.6143L4.59668 65.4404L4.66797 65.2959C4.49001 64.9007 4.56215 64.4204 4.88672 64.0957L4.91797 64.0645C5.17649 63.8057 5.26365 63.4358 5.19531 63.083L5.02344 62.6533C4.82377 62.3432 4.4931 62.1339 4.11816 62.1338H4.07422C3.48094 62.1338 3 61.6528 3 61.0596V58.9404C3 58.3472 3.48095 57.8662 4.07422 57.8662H4.11816C4.56685 57.866 4.95603 57.5688 5.12793 57.1543C5.29987 56.7396 5.23525 56.2531 4.91797 55.9355L4.88672 55.9043C4.4675 55.4849 4.46756 54.8052 4.88672 54.3857L6.38574 52.8867C6.8052 52.4676 7.48487 52.4675 7.9043 52.8867L7.93555 52.918C8.25312 53.2353 8.73956 53.2999 9.1543 53.1279C9.2832 53.0745 9.39821 52.9969 9.49902 52.9062L9.87012 51.9805C9.88883 51.764 9.97164 51.5659 10.0996 51.4053L10.1621 51.25H10.252C10.4384 51.0941 10.6784 51 10.9404 51H13.0596ZM8.70996 60.2627C8.71018 61.8606 10.0105 63.1609 11.6084 63.1611H12.5283L11.8779 63.8105L12.6982 64.6309L14.7471 62.5811L12.6982 60.5312L11.8779 61.3516L12.5283 62.001H11.6084C10.6498 62.0008 9.87033 61.2213 9.87012 60.2627H8.70996ZM8.70215 57.4189L10.752 59.4688L11.5713 58.6484L10.9219 57.999H11.8408C12.7998 57.999 13.5801 58.7793 13.5801 59.7383H14.7393C14.7393 58.14 13.4391 56.8389 11.8408 56.8389H10.9219L11.5713 56.1895L10.752 55.3691L8.70215 57.4189Z" fill="#33363D"/>
<path d="M37.0596 51C37.6528 51 38.1338 51.4809 38.1338 52.0742V52.1182C38.134 52.5668 38.4312 52.956 38.8457 53.1279C39.2604 53.2999 39.7469 53.2353 40.0645 52.918L40.0957 52.8867C40.5151 52.4675 41.1948 52.4676 41.6143 52.8867L43.1133 54.3857C43.5324 54.8052 43.5325 55.4849 43.1133 55.9043L43.082 55.9355C42.8219 56.196 42.7348 56.5691 42.8057 56.9238L43.4951 57.7852C43.616 57.8351 43.7455 57.8662 43.8818 57.8662H43.9258C44.5191 57.8662 45 58.3472 45 58.9404V61.0596C45 61.6529 44.5191 62.1338 43.9258 62.1338H43.8818C43.4363 62.134 43.0497 62.4271 42.876 62.8369V63.7598C42.9256 63.8708 42.9925 63.9749 43.082 64.0645L43.1133 64.0957C43.5325 64.5151 43.5324 65.1948 43.1133 65.6143L41.6143 67.1133C41.1948 67.5324 40.5151 67.5325 40.0957 67.1133L40.0645 67.082C39.7469 66.7647 39.2604 66.7001 38.8457 66.8721C38.4312 67.044 38.134 67.4331 38.1338 67.8818V67.9258C38.1338 68.5191 37.6528 69 37.0596 69H34.9404C34.3472 69 33.8662 68.5191 33.8662 67.9258V67.8818C33.866 67.4332 33.5687 67.044 33.1543 66.8721C32.7396 66.7001 32.2531 66.7647 31.9355 67.082L31.9043 67.1133C31.4849 67.5325 30.8052 67.5324 30.3857 67.1133L28.8867 65.6143L28.5967 65.4404L28.668 65.2959C28.49 64.9007 28.5622 64.4204 28.8867 64.0957L28.918 64.0645C29.1765 63.8057 29.2636 63.4358 29.1953 63.083L29.0234 62.6533C28.8238 62.3432 28.4931 62.1339 28.1182 62.1338H28.0742C27.4809 62.1338 27 61.6528 27 61.0596V58.9404C27 58.3472 27.4809 57.8662 28.0742 57.8662H28.1182C28.5668 57.866 28.956 57.5688 29.1279 57.1543C29.2999 56.7396 29.2352 56.2531 28.918 55.9355L28.8867 55.9043C28.4675 55.4849 28.4676 54.8052 28.8867 54.3857L30.3857 52.8867C30.8052 52.4676 31.4849 52.4675 31.9043 52.8867L31.9355 52.918C32.2531 53.2353 32.7396 53.2999 33.1543 53.1279C33.2832 53.0745 33.3982 52.9969 33.499 52.9062L33.8701 51.9805C33.8888 51.764 33.9716 51.5659 34.0996 51.4053L34.1621 51.25H34.252C34.4384 51.0941 34.6784 51 34.9404 51H37.0596ZM32.71 60.2627C32.7102 61.8606 34.0105 63.1609 35.6084 63.1611H36.5283L35.8779 63.8105L36.6982 64.6309L38.7471 62.5811L36.6982 60.5312L35.8779 61.3516L36.5283 62.001H35.6084C34.6498 62.0008 33.8703 61.2213 33.8701 60.2627H32.71ZM32.7021 57.4189L34.752 59.4688L35.5713 58.6484L34.9219 57.999H35.8408C36.7998 57.999 37.5801 58.7793 37.5801 59.7383H38.7393C38.7393 58.14 37.4391 56.8389 35.8408 56.8389H34.9219L35.5713 56.1895L34.752 55.3691L32.7021 57.4189Z" fill="white"/>
<path d="M61.0596 51C61.6528 51 62.1338 51.4809 62.1338 52.0742V52.1182C62.134 52.5668 62.4312 52.956 62.8457 53.1279C63.2604 53.2999 63.7469 53.2353 64.0645 52.918L64.0957 52.8867C64.5151 52.4675 65.1948 52.4676 65.6143 52.8867L67.1133 54.3857C67.5324 54.8052 67.5325 55.4849 67.1133 55.9043L67.082 55.9355C66.8219 56.196 66.7348 56.5691 66.8057 56.9238L67.4951 57.7852C67.616 57.8351 67.7455 57.8662 67.8818 57.8662H67.9258C68.5191 57.8662 69 58.3472 69 58.9404V61.0596C69 61.6529 68.5191 62.1338 67.9258 62.1338H67.8818C67.4363 62.134 67.0497 62.4271 66.876 62.8369V63.7598C66.9256 63.8708 66.9925 63.9749 67.082 64.0645L67.1133 64.0957C67.5325 64.5151 67.5324 65.1948 67.1133 65.6143L65.6143 67.1133C65.1948 67.5324 64.5151 67.5325 64.0957 67.1133L64.0645 67.082C63.7469 66.7647 63.2604 66.7001 62.8457 66.8721C62.4312 67.044 62.134 67.4331 62.1338 67.8818V67.9258C62.1338 68.5191 61.6528 69 61.0596 69H58.9404C58.3472 69 57.8662 68.5191 57.8662 67.9258V67.8818C57.866 67.4332 57.5687 67.044 57.1543 66.8721C56.7396 66.7001 56.2531 66.7647 55.9355 67.082L55.9043 67.1133C55.4849 67.5325 54.8052 67.5324 54.3857 67.1133L52.8867 65.6143L52.5967 65.4404L52.668 65.2959C52.49 64.9007 52.5622 64.4204 52.8867 64.0957L52.918 64.0645C53.1765 63.8057 53.2636 63.4358 53.1953 63.083L53.0234 62.6533C52.8238 62.3432 52.4931 62.1339 52.1182 62.1338H52.0742C51.4809 62.1338 51 61.6528 51 61.0596V58.9404C51 58.3472 51.4809 57.8662 52.0742 57.8662H52.1182C52.5668 57.866 52.956 57.5688 53.1279 57.1543C53.2999 56.7396 53.2352 56.2531 52.918 55.9355L52.8867 55.9043C52.4675 55.4849 52.4676 54.8052 52.8867 54.3857L54.3857 52.8867C54.8052 52.4676 55.4849 52.4675 55.9043 52.8867L55.9355 52.918C56.2531 53.2353 56.7396 53.2999 57.1543 53.1279C57.2832 53.0745 57.3982 52.9969 57.499 52.9062L57.8701 51.9805C57.8888 51.764 57.9716 51.5659 58.0996 51.4053L58.1621 51.25H58.252C58.4384 51.0941 58.6784 51 58.9404 51H61.0596ZM56.71 60.2627C56.7102 61.8606 58.0105 63.1609 59.6084 63.1611H60.5283L59.8779 63.8105L60.6982 64.6309L62.7471 62.5811L60.6982 60.5312L59.8779 61.3516L60.5283 62.001H59.6084C58.6498 62.0008 57.8703 61.2213 57.8701 60.2627H56.71ZM56.7021 57.4189L58.752 59.4688L59.5713 58.6484L58.9219 57.999H59.8408C60.7998 57.999 61.5801 58.7793 61.5801 59.7383H62.7393C62.7393 58.14 61.4391 56.8389 59.8408 56.8389H58.9219L59.5713 56.1895L58.752 55.3691L56.7021 57.4189Z" fill="#1D56BC"/>
<path d="M7.01933 3C7.77154 2.99998 8.39879 2.99996 8.89674 3.0669C9.42234 3.13757 9.89687 3.29302 10.2782 3.67434C10.6595 4.05566 10.815 4.5302 10.8856 5.05579C10.9526 5.55374 10.9525 6.18099 10.9525 6.9332V8.69471C10.9525 9.44691 10.9526 10.0742 10.8856 10.5721C10.815 11.0978 10.6595 11.5723 10.2782 11.9535C9.89687 12.3349 9.42234 12.4904 8.89674 12.561C8.39879 12.628 7.77154 12.6279 7.01933 12.6279H6.93225C6.18004 12.6279 5.55277 12.628 5.05481 12.561C4.52922 12.4904 4.05469 12.3349 3.67336 11.9535C3.29204 11.5723 3.13659 11.0978 3.06593 10.5721C2.99898 10.0742 2.999 9.44694 2.99902 8.69473V6.93321C2.999 6.18101 2.99898 5.55374 3.06593 5.05579C3.13659 4.5302 3.29204 4.05566 3.67336 3.67434C4.05469 3.29302 4.52922 3.13757 5.05481 3.0669C5.55277 2.99996 6.18001 2.99998 6.93221 3H7.01933Z" fill="#464C53"/>
<path d="M7.83414 14.7227C8.20624 14.7227 8.51688 14.7227 8.7719 14.7401C9.03738 14.7582 9.28814 14.7973 9.53126 14.8979C10.0954 15.1315 10.5436 15.5798 10.7773 16.1439C10.878 16.387 10.917 16.6378 10.9351 16.9033C10.9525 17.1583 10.9525 17.469 10.9525 17.841V17.8834C10.9525 18.2554 10.9525 18.5661 10.9351 18.8211C10.917 19.0866 10.878 19.3374 10.7773 19.5805C10.5436 20.1446 10.0954 20.5928 9.53126 20.8265C9.28814 20.9272 9.03738 20.9662 8.7719 20.9843C8.51688 21.0017 8.20624 21.0017 7.83413 21.0017H6.11742C5.74532 21.0017 5.43468 21.0017 5.17965 20.9843C4.91418 20.9662 4.66341 20.9272 4.42029 20.8265C3.85616 20.5928 3.40795 20.1446 3.17428 19.5805C3.07358 19.3374 3.03453 19.0866 3.01641 18.8211C2.99902 18.5661 2.99902 18.2554 2.99902 17.8834V17.8411C2.99902 17.469 2.99902 17.1583 3.01641 16.9033C3.03453 16.6378 3.07358 16.387 3.17428 16.1439C3.40795 15.5798 3.85616 15.1315 4.42029 14.8979C4.66341 14.7973 4.91418 14.7582 5.17965 14.7401C5.43468 14.7227 5.74531 14.7227 6.11741 14.7227H7.83414Z" fill="#464C53"/>
<path d="M17.0662 11.3711C17.8184 11.3711 18.4457 11.371 18.9436 11.438C19.4692 11.5086 19.9438 11.6641 20.325 12.0455C20.7064 12.4267 20.8618 12.9013 20.9325 13.4269C20.9995 13.9248 20.9994 14.5521 20.9994 15.3043V17.0658C20.9994 17.818 20.9995 18.4453 20.9325 18.9432C20.8618 19.4688 20.7064 19.9434 20.325 20.3246C19.9438 20.706 19.4692 20.8615 18.9436 20.9321C18.4457 20.9991 17.8184 20.999 17.0662 20.999H16.9791C16.2269 20.999 15.5996 20.9991 15.1017 20.9321C14.5761 20.8615 14.1015 20.706 13.7203 20.3246C13.3389 19.9434 13.1835 19.4688 13.1128 18.9432C13.0458 18.4453 13.0459 17.818 13.0459 17.0658V15.3043C13.0459 14.5521 13.0458 13.9248 13.1128 13.4269C13.1835 12.9013 13.3389 12.4267 13.7203 12.0455C14.1015 11.6641 14.5761 11.5086 15.1017 11.438C15.5996 11.371 16.2269 11.3711 16.9791 11.3711H17.0662Z" fill="#464C53"/>
<path d="M17.881 3C18.2531 3 18.5638 2.99999 18.8188 3.01739C19.0843 3.03551 19.335 3.07455 19.5781 3.17525C20.1423 3.40893 20.5905 3.85714 20.8242 4.42126C20.9249 4.66438 20.9639 4.91515 20.982 5.18063C20.9994 5.43565 20.9994 5.74629 20.9994 6.1184V6.16069C20.9994 6.53279 20.9994 6.84343 20.982 7.09845C20.9639 7.36393 20.9249 7.61469 20.8242 7.85781C20.5905 8.42195 20.1423 8.87015 19.5781 9.10382C19.335 9.20452 19.0843 9.24358 18.8188 9.26169C18.5638 9.27909 18.2531 9.27909 17.881 9.27908H16.1643C15.7922 9.27909 15.4815 9.27909 15.2265 9.26169C14.961 9.24358 14.7103 9.20452 14.4671 9.10382C13.903 8.87015 13.4548 8.42195 13.2211 7.85781C13.1205 7.61469 13.0814 7.36393 13.0633 7.09845C13.0459 6.84343 13.0459 6.53279 13.0459 6.16069V6.1184C13.0459 5.7463 13.0459 5.43565 13.0633 5.18063C13.0814 4.91515 13.1205 4.66438 13.2211 4.42126C13.4548 3.85714 13.903 3.40893 14.4671 3.17525C14.7103 3.07455 14.961 3.03551 15.2265 3.01739C15.4815 2.99999 15.7922 3 16.1643 3H17.881Z" fill="#464C53"/>
<path d="M31.0193 3C31.7715 2.99998 32.3988 2.99996 32.8967 3.0669C33.4223 3.13757 33.8969 3.29302 34.2782 3.67434C34.6595 4.05566 34.815 4.5302 34.8856 5.05579C34.9526 5.55374 34.9525 6.18099 34.9525 6.9332V8.69471C34.9525 9.44691 34.9526 10.0742 34.8856 10.5721C34.815 11.0978 34.6595 11.5723 34.2782 11.9535C33.8969 12.3349 33.4223 12.4904 32.8967 12.561C32.3988 12.628 31.7715 12.6279 31.0193 12.6279H30.9322C30.18 12.6279 29.5528 12.628 29.0548 12.561C28.5292 12.4904 28.0547 12.3349 27.6734 11.9535C27.292 11.5723 27.1366 11.0978 27.0659 10.5721C26.999 10.0742 26.999 9.44694 26.999 8.69473V6.93321C26.999 6.18101 26.999 5.55374 27.0659 5.05579C27.1366 4.5302 27.292 4.05566 27.6734 3.67434C28.0547 3.29302 28.5292 3.13757 29.0548 3.0669C29.5528 2.99996 30.18 2.99998 30.9322 3H31.0193Z" fill="white"/>
<path d="M31.8341 14.7227C32.2062 14.7227 32.5169 14.7227 32.7719 14.7401C33.0374 14.7582 33.2881 14.7973 33.5313 14.8979C34.0954 15.1315 34.5436 15.5798 34.7773 16.1439C34.878 16.387 34.917 16.6378 34.9351 16.9033C34.9525 17.1583 34.9525 17.469 34.9525 17.841V17.8834C34.9525 18.2554 34.9525 18.5661 34.9351 18.8211C34.917 19.0866 34.878 19.3374 34.7773 19.5805C34.5436 20.1446 34.0954 20.5928 33.5313 20.8265C33.2881 20.9272 33.0374 20.9662 32.7719 20.9843C32.5169 21.0017 32.2062 21.0017 31.8341 21.0017H30.1174C29.7453 21.0017 29.4347 21.0017 29.1797 20.9843C28.9142 20.9662 28.6634 20.9272 28.4203 20.8265C27.8562 20.5928 27.408 20.1446 27.1743 19.5805C27.0736 19.3374 27.0345 19.0866 27.0164 18.8211C26.999 18.5661 26.999 18.2554 26.999 17.8834V17.8411C26.999 17.469 26.999 17.1583 27.0164 16.9033C27.0345 16.6378 27.0736 16.387 27.1743 16.1439C27.408 15.5798 27.8562 15.1315 28.4203 14.8979C28.6634 14.7973 28.9142 14.7582 29.1797 14.7401C29.4347 14.7227 29.7453 14.7227 30.1174 14.7227H31.8341Z" fill="white"/>
<path d="M41.0662 11.3711C41.8184 11.3711 42.4457 11.371 42.9436 11.438C43.4692 11.5086 43.9438 11.6641 44.325 12.0455C44.7064 12.4267 44.8618 12.9013 44.9325 13.4269C44.9995 13.9248 44.9994 14.5521 44.9994 15.3043V17.0658C44.9994 17.818 44.9995 18.4453 44.9325 18.9432C44.8618 19.4688 44.7064 19.9434 44.325 20.3246C43.9438 20.706 43.4692 20.8615 42.9436 20.9321C42.4457 20.9991 41.8184 20.999 41.0662 20.999H40.9791C40.2269 20.999 39.5996 20.9991 39.1017 20.9321C38.5761 20.8615 38.1015 20.706 37.7203 20.3246C37.3389 19.9434 37.1835 19.4688 37.1128 18.9432C37.0458 18.4453 37.0459 17.818 37.0459 17.0658V15.3043C37.0459 14.5521 37.0458 13.9248 37.1128 13.4269C37.1835 12.9013 37.3389 12.4267 37.7203 12.0455C38.1015 11.6641 38.5761 11.5086 39.1017 11.438C39.5996 11.371 40.2269 11.3711 40.9791 11.3711H41.0662Z" fill="white"/>
<path d="M41.881 3C42.2531 3 42.5638 2.99999 42.8188 3.01739C43.0843 3.03551 43.335 3.07455 43.5781 3.17525C44.1423 3.40893 44.5905 3.85714 44.8242 4.42126C44.9249 4.66438 44.9639 4.91515 44.982 5.18063C44.9994 5.43565 44.9994 5.74629 44.9994 6.1184V6.16069C44.9994 6.53279 44.9994 6.84343 44.982 7.09845C44.9639 7.36393 44.9249 7.61469 44.8242 7.85781C44.5905 8.42195 44.1423 8.87015 43.5781 9.10382C43.335 9.20452 43.0843 9.24358 42.8188 9.26169C42.5638 9.27909 42.2531 9.27909 41.881 9.27908H40.1643C39.7922 9.27909 39.4815 9.27909 39.2265 9.26169C38.961 9.24358 38.7103 9.20452 38.4671 9.10382C37.903 8.87015 37.4548 8.42195 37.2211 7.85781C37.1205 7.61469 37.0814 7.36393 37.0633 7.09845C37.0459 6.84343 37.0459 6.53279 37.0459 6.16069V6.1184C37.0459 5.7463 37.0459 5.43565 37.0633 5.18063C37.0814 4.91515 37.1205 4.66438 37.2211 4.42126C37.4548 3.85714 37.903 3.40893 38.4671 3.17525C38.7103 3.07455 38.961 3.03551 39.2265 3.01739C39.4815 2.99999 39.7922 3 40.1643 3H41.881Z" fill="white"/>
<path d="M55.0193 3C55.7715 2.99998 56.3988 2.99996 56.8967 3.0669C57.4223 3.13757 57.8969 3.29302 58.2782 3.67434C58.6595 4.05566 58.815 4.5302 58.8856 5.05579C58.9526 5.55374 58.9525 6.18099 58.9525 6.9332V8.69471C58.9525 9.44691 58.9526 10.0742 58.8856 10.5721C58.815 11.0978 58.6595 11.5723 58.2782 11.9535C57.8969 12.3349 57.4223 12.4904 56.8967 12.561C56.3988 12.628 55.7715 12.6279 55.0193 12.6279H54.9322C54.18 12.6279 53.5528 12.628 53.0548 12.561C52.5292 12.4904 52.0547 12.3349 51.6734 11.9535C51.292 11.5723 51.1366 11.0978 51.0659 10.5721C50.999 10.0742 50.999 9.44694 50.999 8.69473V6.93321C50.999 6.18101 50.999 5.55374 51.0659 5.05579C51.1366 4.5302 51.292 4.05566 51.6734 3.67434C52.0547 3.29302 52.5292 3.13757 53.0548 3.0669C53.5528 2.99996 54.18 2.99998 54.9322 3H55.0193Z" fill="#1D56BC"/>
<path d="M55.8341 14.7227C56.2062 14.7227 56.5169 14.7227 56.7719 14.7401C57.0374 14.7582 57.2881 14.7973 57.5313 14.8979C58.0954 15.1315 58.5436 15.5798 58.7773 16.1439C58.878 16.387 58.917 16.6378 58.9351 16.9033C58.9525 17.1583 58.9525 17.469 58.9525 17.841V17.8834C58.9525 18.2554 58.9525 18.5661 58.9351 18.8211C58.917 19.0866 58.878 19.3374 58.7773 19.5805C58.5436 20.1446 58.0954 20.5928 57.5313 20.8265C57.2881 20.9272 57.0374 20.9662 56.7719 20.9843C56.5169 21.0017 56.2062 21.0017 55.8341 21.0017H54.1174C53.7453 21.0017 53.4347 21.0017 53.1797 20.9843C52.9142 20.9662 52.6634 20.9272 52.4203 20.8265C51.8562 20.5928 51.408 20.1446 51.1743 19.5805C51.0736 19.3374 51.0345 19.0866 51.0164 18.8211C50.999 18.5661 50.999 18.2554 50.999 17.8834V17.8411C50.999 17.469 50.999 17.1583 51.0164 16.9033C51.0345 16.6378 51.0736 16.387 51.1743 16.1439C51.408 15.5798 51.8562 15.1315 52.4203 14.8979C52.6634 14.7973 52.9142 14.7582 53.1797 14.7401C53.4347 14.7227 53.7453 14.7227 54.1174 14.7227H55.8341Z" fill="#1D56BC"/>
<path d="M65.0662 11.3711C65.8184 11.3711 66.4457 11.371 66.9436 11.438C67.4692 11.5086 67.9438 11.6641 68.325 12.0455C68.7064 12.4267 68.8618 12.9013 68.9325 13.4269C68.9995 13.9248 68.9994 14.5521 68.9994 15.3043V17.0658C68.9994 17.818 68.9995 18.4453 68.9325 18.9432C68.8618 19.4688 68.7064 19.9434 68.325 20.3246C67.9438 20.706 67.4692 20.8615 66.9436 20.9321C66.4457 20.9991 65.8184 20.999 65.0662 20.999H64.9791C64.2269 20.999 63.5996 20.9991 63.1017 20.9321C62.5761 20.8615 62.1015 20.706 61.7203 20.3246C61.3389 19.9434 61.1835 19.4688 61.1128 18.9432C61.0458 18.4453 61.0459 17.818 61.0459 17.0658V15.3043C61.0459 14.5521 61.0458 13.9248 61.1128 13.4269C61.1835 12.9013 61.3389 12.4267 61.7203 12.0455C62.1015 11.6641 62.5761 11.5086 63.1017 11.438C63.5996 11.371 64.2269 11.3711 64.9791 11.3711H65.0662Z" fill="#1D56BC"/>
<path d="M65.881 3C66.2531 3 66.5638 2.99999 66.8188 3.01739C67.0843 3.03551 67.335 3.07455 67.5781 3.17525C68.1423 3.40893 68.5905 3.85714 68.8242 4.42126C68.9249 4.66438 68.9639 4.91515 68.982 5.18063C68.9994 5.43565 68.9994 5.74629 68.9994 6.1184V6.16069C68.9994 6.53279 68.9994 6.84343 68.982 7.09845C68.9639 7.36393 68.9249 7.61469 68.8242 7.85781C68.5905 8.42195 68.1423 8.87015 67.5781 9.10382C67.335 9.20452 67.0843 9.24358 66.8188 9.26169C66.5638 9.27909 66.2531 9.27909 65.881 9.27908H64.1643C63.7922 9.27909 63.4815 9.27909 63.2265 9.26169C62.961 9.24358 62.7103 9.20452 62.4671 9.10382C61.903 8.87015 61.4548 8.42195 61.2211 7.85781C61.1205 7.61469 61.0814 7.36393 61.0633 7.09845C61.0459 6.84343 61.0459 6.53279 61.0459 6.16069V6.1184C61.0459 5.7463 61.0459 5.43565 61.0633 5.18063C61.0814 4.91515 61.1205 4.66438 61.2211 4.42126C61.4548 3.85714 61.903 3.40893 62.4671 3.17525C62.7103 3.07455 62.961 3.03551 63.2265 3.01739C63.4815 2.99999 63.7922 3 64.1643 3H65.881Z" fill="#1D56BC"/>
<g clip-path="url(#clip0_0_1)">
<mask id="mask0_0_1" style="mask-type:luminance" maskUnits="userSpaceOnUse" x="4" y="27" width="18" height="18">
<path d="M4 27H22V45H4V27Z" fill="white"/>
</mask>
<g mask="url(#mask0_0_1)">
<path d="M18.0004 34.8152C18.3404 34.8152 18.6704 34.8552 19.0004 34.9052V31.3951C19.0004 30.5951 18.5304 29.8751 17.8004 29.5651L12.3002 27.165C11.7902 26.945 11.2102 26.945 10.7002 27.165L5.20003 29.5651C4.47001 29.8851 4 30.6051 4 31.3951V34.9952C4 39.5353 7.20008 43.7854 11.5002 44.8155C12.0502 44.6855 12.5802 44.4955 13.1002 44.2655C12.4102 43.2854 12.0002 42.0954 12.0002 40.8154C12.0002 37.5053 14.6903 34.8152 18.0004 34.8152Z" fill="#464C53"/>
<path d="M18.0001 36.8164C15.79 36.8164 14 38.6065 14 40.8165C14 43.0266 15.79 44.8166 18.0001 44.8166C20.2102 44.8166 22.0002 43.0266 22.0002 40.8165C22.0002 38.6065 20.2102 36.8164 18.0001 36.8164ZM18.0001 38.1964C18.6201 38.1964 19.1201 38.7065 19.1201 39.3165C19.1201 39.9265 18.6101 40.4365 18.0001 40.4365C17.3901 40.4365 16.8801 39.9265 16.8801 39.3165C16.8801 38.7065 17.3801 38.1964 18.0001 38.1964ZM18.0001 43.5666C17.0701 43.5666 16.2601 43.1066 15.76 42.3966C15.81 41.6765 17.2701 41.3165 18.0001 41.3165C18.7301 41.3165 20.1902 41.6765 20.2402 42.3966C19.7402 43.1066 18.9301 43.5666 18.0001 43.5666Z" fill="#464C53"/>
</g>
</g>
<g clip-path="url(#clip1_0_1)">
<mask id="mask1_0_1" style="mask-type:luminance" maskUnits="userSpaceOnUse" x="28" y="27" width="18" height="18">
<path d="M28 27H46V45H28V27Z" fill="white"/>
</mask>
<g mask="url(#mask1_0_1)">
<path d="M42.0004 34.8152C42.3404 34.8152 42.6704 34.8552 43.0004 34.9052V31.3951C43.0004 30.5951 42.5304 29.8751 41.8004 29.5651L36.3002 27.165C35.7902 26.945 35.2102 26.945 34.7002 27.165L29.2 29.5651C28.47 29.8851 28 30.6051 28 31.3951V34.9952C28 39.5353 31.2001 43.7854 35.5002 44.8155C36.0502 44.6855 36.5802 44.4955 37.1002 44.2655C36.4102 43.2854 36.0002 42.0954 36.0002 40.8154C36.0002 37.5053 38.6903 34.8152 42.0004 34.8152Z" fill="white"/>
<path d="M42.0001 36.8164C39.79 36.8164 38 38.6065 38 40.8165C38 43.0266 39.79 44.8166 42.0001 44.8166C44.2102 44.8166 46.0002 43.0266 46.0002 40.8165C46.0002 38.6065 44.2102 36.8164 42.0001 36.8164ZM42.0001 38.1964C42.6201 38.1964 43.1201 38.7065 43.1201 39.3165C43.1201 39.9265 42.6101 40.4365 42.0001 40.4365C41.3901 40.4365 40.8801 39.9265 40.8801 39.3165C40.8801 38.7065 41.3801 38.1964 42.0001 38.1964ZM42.0001 43.5666C41.0701 43.5666 40.2601 43.1066 39.76 42.3966C39.81 41.6765 41.2701 41.3165 42.0001 41.3165C42.7301 41.3165 44.1902 41.6765 44.2402 42.3966C43.7402 43.1066 42.9301 43.5666 42.0001 43.5666Z" fill="white"/>
</g>
</g>
<g clip-path="url(#clip2_0_1)">
<mask id="mask2_0_1" style="mask-type:luminance" maskUnits="userSpaceOnUse" x="52" y="27" width="18" height="18">
<path d="M52 27H70V45H52V27Z" fill="white"/>
</mask>
<g mask="url(#mask2_0_1)">
<path d="M66.0004 34.8152C66.3404 34.8152 66.6704 34.8552 67.0004 34.9052V31.3951C67.0004 30.5951 66.5304 29.8751 65.8004 29.5651L60.3002 27.165C59.7902 26.945 59.2102 26.945 58.7002 27.165L53.2 29.5651C52.47 29.8851 52 30.6051 52 31.3951V34.9952C52 39.5353 55.2001 43.7854 59.5002 44.8155C60.0502 44.6855 60.5802 44.4955 61.1002 44.2655C60.4102 43.2854 60.0002 42.0954 60.0002 40.8154C60.0002 37.5053 62.6903 34.8152 66.0004 34.8152Z" fill="#1D56BC"/>
<path d="M66.0001 36.8164C63.79 36.8164 62 38.6065 62 40.8165C62 43.0266 63.79 44.8166 66.0001 44.8166C68.2102 44.8166 70.0002 43.0266 70.0002 40.8165C70.0002 38.6065 68.2102 36.8164 66.0001 36.8164ZM66.0001 38.1964C66.6201 38.1964 67.1201 38.7065 67.1201 39.3165C67.1201 39.9265 66.6101 40.4365 66.0001 40.4365C65.3901 40.4365 64.8801 39.9265 64.8801 39.3165C64.8801 38.7065 65.3801 38.1964 66.0001 38.1964ZM66.0001 43.5666C65.0701 43.5666 64.2601 43.1066 63.76 42.3966C63.81 41.6765 65.2701 41.3165 66.0001 41.3165C66.7301 41.3165 68.1902 41.6765 68.2402 42.3966C67.7402 43.1066 66.9301 43.5666 66.0001 43.5666Z" fill="#1D56BC"/>
</g>
</g>
<defs>
<clipPath id="clip0_0_1">
<rect width="18" height="18" fill="white" transform="translate(4 27)"/>
</clipPath>
<clipPath id="clip1_0_1">
<rect width="18" height="18" fill="white" transform="translate(28 27)"/>
</clipPath>
<clipPath id="clip2_0_1">
<rect width="18" height="18" fill="white" transform="translate(52 27)"/>
</clipPath>
</defs>
</svg>
