<svg width="40" height="40" viewBox="0 0 40 40" fill="none" xmlns="http://www.w3.org/2000/svg">
<rect width="40" height="40" rx="8" fill="#F3EEFA"/>
<rect width="32" height="32" transform="translate(4 4)" fill="#F3EEFA"/>
<path d="M8.38281 11.3667C8.38281 9.70985 9.72596 8.3667 11.3828 8.3667L20.7413 8.36671L25.2944 12.9198L28.5466 16.172V27.4818C28.5466 29.1387 27.2035 30.4818 25.5466 30.4818L11.3828 30.4818C9.72595 30.4818 8.38281 29.1387 8.38281 27.4818V11.3667Z" fill="#9E66FB"/>
<path d="M20.7422 16.172V8.3667L28.5475 16.172H20.7422Z" fill="#D6BAFE"/>
<path d="M12.9854 18.0483H18.9895" stroke="white" stroke-width="1.8" stroke-linecap="round"/>
<path d="M12.9854 24.0522H21.3911" stroke="white" stroke-width="1.8" stroke-linecap="round"/>
<g filter="url(#filter0_d_879_28986)">
<rect x="21.1924" y="21.8259" width="10.8074" height="10.8074" rx="3" fill="#6F16EE" fill-opacity="0.8" shape-rendering="crispEdges"/>
</g>
<path d="M24.209 27.3579L25.9115 29.0604C26.1266 29.2756 26.4825 29.2503 26.665 29.0069L29.4843 25.2478" stroke="white" stroke-width="1.4" stroke-linecap="round"/>
<defs>
<filter id="filter0_d_879_28986" x="19.1924" y="21.8259" width="14.8076" height="14.8074" filterUnits="userSpaceOnUse" color-interpolation-filters="sRGB">
<feFlood flood-opacity="0" result="BackgroundImageFix"/>
<feColorMatrix in="SourceAlpha" type="matrix" values="0 0 0 0 0 0 0 0 0 0 0 0 0 0 0 0 0 0 127 0" result="hardAlpha"/>
<feOffset dy="2"/>
<feGaussianBlur stdDeviation="1"/>
<feComposite in2="hardAlpha" operator="out"/>
<feColorMatrix type="matrix" values="0 0 0 0 0.619608 0 0 0 0 0.4 0 0 0 0 0.984314 0 0 0 0.2 0"/>
<feBlend mode="normal" in2="BackgroundImageFix" result="effect1_dropShadow_879_28986"/>
<feBlend mode="normal" in="SourceGraphic" in2="effect1_dropShadow_879_28986" result="shape"/>
</filter>
</defs>
</svg>
