<svg width="40" height="40" viewBox="0 0 40 40" fill="none" xmlns="http://www.w3.org/2000/svg">
<rect width="40" height="40" rx="8" fill="#FEECF0"/>
<rect x="6.99902" y="9.03613" width="20.9199" height="20.9199" rx="4" fill="#E7416B"/>
<path d="M12.582 16.0132H18.8613M12.582 22.9902H22.3498" stroke="white" stroke-width="1.8" stroke-linecap="round"/>
<g filter="url(#filter0_d_879_29071)">
<path d="M19.501 22.812C19.5009 22.0766 19.9054 21.4003 20.5527 21.0513L24.9219 18.6958C25.5143 18.3764 26.2279 18.3764 26.8203 18.6958L31.1895 21.0513C31.8365 21.4002 32.24 22.0759 32.2402 22.811L32.2402 28.6685C32.2401 29.4081 31.8319 30.087 31.1787 30.4341L26.8096 32.7554C26.2228 33.0671 25.5194 33.0671 24.9326 32.7554L20.5635 30.4341C19.9103 30.087 19.5021 29.4081 19.502 28.6685L19.501 22.812Z" fill="#B6113A" fill-opacity="0.8"/>
</g>
<path fill-rule="evenodd" clip-rule="evenodd" d="M25.7697 26.6284C25.3518 26.6284 25.0131 26.2897 25.0131 25.8718L25.0131 23.1479C25.0131 22.73 25.3518 22.3912 25.7697 22.3912C26.1876 22.3912 26.5264 22.73 26.5264 23.1479L26.5264 25.8718C26.5264 26.2897 26.1876 26.6284 25.7697 26.6284Z" fill="white"/>
<path fill-rule="evenodd" clip-rule="evenodd" d="M26.5312 28.5959C26.5312 29.0138 26.1925 29.3525 25.7746 29.3525L25.7678 29.3525C25.3499 29.3525 25.0111 29.0138 25.0111 28.5959C25.0111 28.178 25.3499 27.8392 25.7678 27.8392L25.7746 27.8392C26.1925 27.8392 26.5312 28.178 26.5312 28.5959Z" fill="white"/>
<defs>
<filter id="filter0_d_879_29071" x="17.501" y="18.4563" width="16.7393" height="18.533" filterUnits="userSpaceOnUse" color-interpolation-filters="sRGB">
<feFlood flood-opacity="0" result="BackgroundImageFix"/>
<feColorMatrix in="SourceAlpha" type="matrix" values="0 0 0 0 0 0 0 0 0 0 0 0 0 0 0 0 0 0 127 0" result="hardAlpha"/>
<feOffset dy="2"/>
<feGaussianBlur stdDeviation="1"/>
<feComposite in2="hardAlpha" operator="out"/>
<feColorMatrix type="matrix" values="0 0 0 0 0.964706 0 0 0 0 0.427451 0 0 0 0 0.560784 0 0 0 0.25 0"/>
<feBlend mode="normal" in2="BackgroundImageFix" result="effect1_dropShadow_879_29071"/>
<feBlend mode="normal" in="SourceGraphic" in2="effect1_dropShadow_879_29071" result="shape"/>
</filter>
</defs>
</svg>
